<?xml version="1.0" encoding="UTF-8"?>
<svg id="Ebene_1" data-name="Ebene 1" xmlns="http://www.w3.org/2000/svg" xmlns:xlink="http://www.w3.org/1999/xlink" viewBox="0 0 63 20">
  <defs>
    <style>
      .cls-1, .cls-2 {
        fill: #fff;
      }

      .cls-1, .cls-3 {
        font-family: Verdana, Verdana;
        font-size: 11px;
      }

      .cls-1, .cls-4 {
        isolation: isolate;
      }

      .cls-3 {
        fill: #010101;
      }

      .cls-5 {
        fill: #d00b0a;
      }

      .cls-6 {
        letter-spacing: 0em;
      }

      .cls-7 {
        clip-path: url(#clippath);
      }
    </style>
    <clipPath id="clippath">
      <rect class="cls-5" x="0" width="63" height="20" rx="3" ry="3"/>
    </clipPath>
  </defs>
  <g>
    <rect class="cls-5" x="0" width="63" height="20" rx="3" ry="3"/>
    <g class="cls-7">
      <g>
        <rect class="cls-5" width="63" height="20"/>
        <rect class="cls-5" width="63" height="20"/>
      </g>
    </g>
  </g>
  <g text-rendering="geometricPrecision">
    <g class="cls-4">
      <text class="cls-3" transform="translate(22.96 15)"><tspan x="0" y="0">M</tspan><tspan class="cls-6" x="9.27" y="0">O</tspan><tspan x="17.88" y="0">XR</tspan></text>
    </g>
    <text class="cls-1" transform="translate(22.96 14)"><tspan x="0" y="0">M</tspan><tspan class="cls-6" x="9.27" y="0">O</tspan><tspan x="17.88" y="0">XR</tspan></text>
  </g>
  <circle cx="11.87" cy="10" r="7.98"/>
  <path class="cls-2" d="M11.16,7.55c.12-.1.21-.19.32-.27.23-.17.48-.26.77-.21.37.06.58.31.7.64.09.26.11.53.12.8,0,.46-.04.91-.09,1.36,0,.07-.02.14-.01.22.04-.06.07-.12.11-.18.13-.21.28-.4.49-.54.28-.17.61-.17.83,0,.18.14.26.34.29.57.04.3.02.59-.02.88-.11.71-.24,1.41-.35,2.12-.05.32-.08.65-.12.97,0,.03,0,.06,0,.11.08-.05.15-.09.21-.14.36-.27.68-.59.97-.94.04-.04.04-.08.02-.13-.24-.59-.08-1.25.39-1.68.46-.42,1.14-.51,1.7-.23.59.3.92.95.81,1.61-.11.64-.63,1.15-1.28,1.24-.27.04-.54,0-.79-.1-.05-.02-.08-.01-.12.03-.41.48-.85.92-1.4,1.24-.18.11-.38.19-.6.21-.46.04-.79-.22-.89-.68-.06-.29-.05-.59,0-.88.11-.76.24-1.51.36-2.26,0-.04.01-.09,0-.14-.03.07-.07.14-.1.21-.28.64-.55,1.29-.83,1.93-.08.18-.18.36-.3.52-.16.22-.39.28-.63.19-.22-.07-.37-.28-.36-.54.01-.28.05-.57.1-.85.14-.83.3-1.65.45-2.48.09-.51.14-1.02.14-1.54,0-.09,0-.19,0-.28,0-.04-.02-.07-.03-.11-.03.02-.08.03-.1.06-.13.16-.26.33-.38.5-.45.67-.83,1.38-1.17,2.11-.61,1.33-1.21,2.66-1.82,4-.03.06-.06.12-.09.18-.15.24-.42.34-.67.24-.23-.09-.37-.35-.3-.62.07-.29.16-.57.27-.84.64-1.71,1.29-3.43,1.93-5.14.45-1.2.86-2.4,1.19-3.64.05-.19.09-.39.13-.58,0-.02,0-.04,0-.08-.12.1-.23.2-.33.29-.92.87-1.72,1.85-2.48,2.86-.53.7-1.03,1.41-1.47,2.17-.11.19-.19.38-.29.58-.01.03-.01.07,0,.1.09.24.03.47-.15.61-.19.15-.45.15-.65,0-.24-.17-.3-.42-.26-.7.05-.33.2-.63.36-.92.49-.88,1.07-1.7,1.68-2.51.53-.7,1.08-1.39,1.67-2.04.47-.52.96-1.03,1.54-1.43.15-.1.31-.19.48-.26.46-.17.88.09.96.58.04.31,0,.62-.06.92-.15.8-.4,1.58-.66,2.36-.05.17-.11.34-.18.53h0ZM17.38,12.25c0-.32-.26-.58-.59-.58s-.58.26-.58.59c0,.32.26.58.59.58.32,0,.58-.26.58-.59Z"/>
  <path class="cls-2" d="M16.81,10.33h-.75c-.29,0-.52-.23-.52-.51s.23-.51.52-.51h1.52c.26,0,.48.2.51.44.03.28-.14.51-.4.57-.05,0-.09,0-.14,0h-.73,0Z"/>
  <path class="cls-5" d="M17.38,12.25c0,.32-.26.59-.58.59s-.59-.26-.59-.58.26-.58.58-.59c.32,0,.58.26.59.58Z"/>
</svg>