<?xml version="1.0" encoding="UTF-8"?>
<svg id="Ebene_1" data-name="Ebene 1" xmlns="http://www.w3.org/2000/svg" xmlns:xlink="http://www.w3.org/1999/xlink" viewBox="0 0 76.03 20">
  <defs>
    <style>
      .cls-1 {
        fill: #cd9979;
      }

      .cls-2 {
        fill: #e9b292;
      }

      .cls-3 {
        fill: #552b16;
      }

      .cls-4 {
        fill: #6b3923;
      }

      .cls-5 {
        fill: #f9ddcb;
      }

      .cls-6 {
        letter-spacing: -.02em;
      }

      .cls-7 {
        fill: #e3b499;
      }

      .cls-8 {
        fill: #f7c8a9;
      }

      .cls-9 {
        fill: #f2f2f2;
      }

      .cls-9, .cls-10 {
        font-family: Verdana, Verdana;
        font-size: 12px;
      }

      .cls-11 {
        fill: #a06847;
      }

      .cls-12 {
        fill: #824f37;
      }

      .cls-13 {
        fill: #a77251;
      }

      .cls-14 {
        fill: #294999;
      }

      .cls-15 {
        fill: #c89070;
      }

      .cls-16 {
        fill: #7e1818;
      }

      .cls-17 {
        fill: #e58383;
      }

      .cls-18 {
        fill: #c48d75;
      }

      .cls-19 {
        fill: #f6c1a1;
      }

      .cls-20 {
        fill: #ecb999;
      }

      .cls-21 {
        fill: #f0d0be;
      }

      .cls-22 {
        fill: #be8069;
      }

      .cls-23 {
        fill: #f1be9f;
      }

      .cls-24 {
        fill: #dea890;
      }

      .cls-25 {
        fill: #d39d7d;
      }

      .cls-26 {
        fill: #451f0c;
      }

      .cls-10 {
        fill: #1d1d1b;
      }

      .cls-27 {
        fill: #dcaa8d;
      }

      .cls-28 {
        fill: #955e3e;
      }

      .cls-29 {
        fill: #b87f5f;
      }

      .cls-30 {
        fill: #d16c6e;
      }

      .cls-31 {
        fill: #e3ad8c;
      }

      .cls-32 {
        fill: #f0bb99;
      }

      .cls-33 {
        clip-path: url(#clippath);
      }

      .cls-34 {
        fill: #dba485;
      }
    </style>
    <clipPath id="clippath">
      <path class="cls-14" d="M3.62,0h68.79c2,0,3.62,1.34,3.62,3v14c0,1.66-1.62,3-3.62,3H3.62c-2,0-3.62-1.34-3.62-3V3C0,1.34,1.62,0,3.62,0Z"/>
    </clipPath>
  </defs>
  <g>
    <rect class="cls-14" width="76.03" height="20" rx="3" ry="3"/>
    <g>
      <path class="cls-14" d="M3.62,0h68.79c2,0,3.62,1.34,3.62,3v14c0,1.66-1.62,3-3.62,3H3.62c-2,0-3.62-1.34-3.62-3V3C0,1.34,1.62,0,3.62,0Z"/>
      <g class="cls-33">
        <g>
          <rect class="cls-14" width="76.03" height="20"/>
          <rect class="cls-14" width="76.03" height="20"/>
        </g>
      </g>
    </g>
  </g>
  <text class="cls-10" transform="translate(22.88 15.68)"><tspan class="cls-6" x="0" y="0">P</tspan><tspan x="6.94" y="0">ortfolio</tspan></text>
  <text class="cls-9" transform="translate(22.87 15)"><tspan class="cls-6" x="0" y="0">P</tspan><tspan x="6.94" y="0">ortfolio</tspan></text>
  <g>
    <path class="cls-25" d="M15.33,12.7c0,.31.17.32.25.6h.17c.12-.37.26-.48.65-.54-.02.26.17.22.21.43-.06.04-.13.07-.18.12-.2.18-.15.18-.18.42-.25.03-.45.54-.61.64-.07.04-.17.01-.22.05-.19.12-.41.34-.67.39-.34.08-.43.07-.79.18-.12.04-.25-.01-.38.05-.3.13-.26.49-.36.61-.05.05-.77.29-.26.44.58.18.54-.45.62-.51.07-.05.57-.05.66,0,.01,0,.21.22.21.24.26.56-.34.55-.32,1.02-.06.07-.17.07-.12.24h-2.06l.16-.29c.45.11.93.09,1.39.06.11-.18.33-.19.43-.27.02-.02.31-.36.31-.39.04-.14-.21-.32-.32-.31-.28.02-.38.45-.41.47s-.56-.02-.74.02c-.25.06-.39.27-.65.23-.03-.3.36-.21.42-.25.02-.01.06-.33.1-.42.06-.14.45-.72.27-.82-.08,0-.25-.03-.3-.03.09-.16.27-.22.4-.36.07-.08.07-.21.13-.25.05-.04.17-.03.2-.05v.36s1.01-.23,1.11-.31c.29-.21.4-.42.61-.66.28-.32.53-.17.15-.72-.06-.09-.13-.21-.24-.3.07-.11.25-.05.36-.06Z"/>
    <path class="cls-29" d="M18.67,10.27c.25.03-.13.34-.17.36-.1.07-.37.12-.41.18-.04.07-.02.2-.07.3-.1.23-.31.31-.27.55-.02.02-.04.05-.06.06-.02.02-.09,0-.15.06-.27.33.06.86-.36,1.31-.2.22-.16.14-.34.44-.05.08-.09.19-.12.24-.45.72-.98,1.63-1.47,2.44-.15.24-.57.5-.59.84h-.36c-.07-.41.15-.16.29-.25.2-.39.42-.77.65-1.14.16-.26.33-.64.46-.82.25-.37.41-.22.54-.89,0-.02,0-.04,0-.06.11-.03.09-.11.12-.18,0-.02.06-.04.06-.06h.06s.04-.03.06-.06c.05-.07.03-.07.12-.18.04-.05.14-.06.18-.17.04-.13-.04-.16-.05-.2-.01-.05.02-.16,0-.18h.17c.13-.25.05-.48.01-.73-.19.11-.38-.01-.55.03-.2.04-.03.25-.24.22,0-.06,0-.12,0-.18,0-.01.06-.07.07-.15,0-.29-.18-.38-.37-.58-.05-.05,0-.03-.12-.12-.2-.16-.34-.21-.49-.3-.01,0,.03-.19-.24-.12v-.12c.14,0,.23.04.36.06.08.01.16.05.24.06.04.27.97.64,1.17.65.04,0,.38-.04.4-.05s.1-.26.19-.37c.13-.15.26-.27.42-.35.18-.09.11-.12.12-.12.17-.11.66-.29.73-.42Z"/>
    <path class="cls-23" d="M6.05,12.34c.51.27.79.9,1.02,1.44.14.34.03.71.56.74-.14-.52-.26-1.19.36-1.39.16.06.44.25.48.41.03.11-.04.2-.04.28s.1.14.09.24c-.01.1-.19.43-.21.57-.11.7.41,1.01.52,1.58.04.21-.04.63.01.86h-.18v-.06c.12-.16-.08-.39-.12-.55-.09-.3-.11-.61-.33-.91-.1-.13-.23-.13-.31-.2-.32-.3-.48-.76-.87-.95-.02-.06-.06-.11-.06-.12-.03-.08.03-.21-.12-.24-.02-.07-.04-.12-.06-.18-.05-.19-.19-.73-.28-.84-.08-.1-.23-.12-.29-.18-.07-.07.02-.23-.16-.19-.03-.06-.04-.13-.06-.18l.06-.12Z"/>
    <path class="cls-28" d="M18.85,11.3c0,.1,0,.2,0,.3-.13-.03-.13.07-.18.15-.11.19-.19.34-.33.52-.25.3-.63.41-.45.93-.46.07-.09.63-.49.79l.18.21c-.18.16-.21.54-.37.69-.08.08-.29.15-.41.25-.3.25-.58.77-.88,1.05-.19.18-.58.43-.82.64-.08.07-.16.09-.07.21h-.18c.12-.47.62-.69.85-1.09.34,0,.4-.38.61-.57.07-.06.21-.08.23-.11.05-.07.05-.53.09-.67.06-.21.31-.42.33-.51.05-.16,0-.36.07-.56.21-.03.13-.08.18-.18.19-.36.36-.84.55-1.15,0,0,.1,0,.15-.06.25-.37.17-1.16.94-.85Z"/>
    <path class="cls-7" d="M8.24,13.06s.12.06.12.06c.01.01-.01.11,0,.12.04.03.26-.04.35.01.06.22.31.52.32.71,0,.25-.03.36,0,.67.04.42,0,.32-.08.68-.12.51.09.36.32.57s.32.53.25.84c-.02.1-.36.03-.25.34h-.42c-.05-.24.03-.66-.01-.86-.11-.57-.64-.87-.52-1.58.02-.14.2-.47.21-.57.01-.09-.08-.15-.09-.24s.06-.17.04-.28c-.04-.16-.32-.35-.48-.41v-.06c.07,0,.14-.04.24,0Z"/>
    <path class="cls-34" d="M12.6,15.07c.05,0,.22.04.3.03.17.1-.21.68-.27.82-.04.09-.08.4-.1.42-.05.04-.45-.05-.42.25.26.04.41-.17.65-.23.18-.04.71,0,.74-.02s.13-.45.41-.47c.1,0,.35.17.32.31,0,.02-.29.37-.31.39-.1.08-.32.09-.43.27-.46.03-.94.05-1.39-.06l-.16.29h-.61c0-.21.04-.17-.15-.18-.41-.03-.62.14-1-.06.16-.01.32-.16.47-.17s.27.11.47.12c.45,0,.86-.37,1.16-.67.11-.11.47-.46.37-.61,0-.01-.26-.18-.28-.18l.06-.18s.07-.06.18-.06Z"/>
    <path class="cls-27" d="M9.27,14.64h.12l.06.12c-.05.03-.04.08-.06.12-.15.37-.13.59,0,.96.2.03.41.02.6-.05-.09.58.95.81,1.36.73.23-.04.26-.29.38-.37.07-.05.6-.27.62-.3.01-.25-.15-.33-.36-.36-.06-.16.26-.21.36-.18.02,0,.27.17.28.18.1.15-.26.5-.37.61-.3.31-.71.68-1.16.67-.2,0-.32-.13-.47-.12s-.31.16-.47.17c-.29-.15-.58-.11-.61.24h-.3c-.11-.31.22-.25.25-.34.07-.3-.03-.63-.25-.84s-.44-.06-.32-.57c.09-.36.12-.25.08-.68h.24Z"/>
    <path class="cls-12" d="M18.85,13.31c0,.1,0,.2,0,.3-.27-.01-.21.17-.31.27-.16.17-.45.37-.6.55-.52.6-.7,1.04-1.4,1.57-.24.18-.72.32-.85.64-.03.02-.07.12-.18.18-.08.05-.29-.05-.24.24h-.24c-.1-.12-.01-.14.07-.21.24-.22.62-.46.82-.64.3-.29.58-.8.88-1.05.12-.1.34-.17.41-.25.15-.15.18-.53.37-.69.01-.01.05,0,.06,0,.09-.07.11-.11.12-.12.05-.04.19-.05.28-.14.07-.07.19-.31.22-.33.07-.04.2,0,.29-.04.12-.07.05-.35.3-.27Z"/>
    <path class="cls-3" d="M18.85,14.28c0,.26,0,.53,0,.79-.29-.11-.48-.07-.72.09-.37.25-.67.67-1.03.97s-.75.56-1.1.88h.91s.01-.12.09-.18c.13-.12.29-.17.36-.34l1.5-1.3c0,.08,0,.16,0,.24l-1.15,1c-.29.23-.41.59-.79.64h-1.33l-.12-.1.06-.14c.11-.06.15-.16.18-.18.83-.52,1.79-1.12,2.42-1.85.19-.21.44-.45.73-.52Z"/>
    <path class="cls-5" d="M4.78,5.48l.42.07v.3c-.17.1-.16.14-.18.33-.07.75-.03,1.96,0,2.74.02.36.16.78.19,1.02.03.19-.03.44,0,.64,0,0-.1.03-.12-.04-.16-.48-.1-1.22-.3-1.72v-3.34Z"/>
    <path class="cls-15" d="M16.24,13.97c-.13.67-.29.52-.54.89-.12.18-.3.56-.46.82-.23.37-.46.75-.65,1.14-.14.09-.36-.15-.29.25h-.3c-.05-.17.06-.17.12-.24.16-.18.38-.3.51-.49.22-.32.38-1.08.55-1.33.04-.06.17-.06.24-.12.29-.28.47-.75.82-.91Z"/>
    <path class="cls-12" d="M18.85,15.43c0,.2,0,.4,0,.61-.33.15-.6.59-.88.79-.18.13-.38.16-.58.24h-.49c.38-.05.5-.41.79-.64l1.15-1Z"/>
    <path class="cls-13" d="M16.73,13.79c-.05.15-.06.37-.13.51-.05.08-.16.09-.19.18-.11.28-.12.84-.42,1.12-.06.06-.18.04-.23.12s-.03.22-.05.26c-.23.41-.73.62-.85,1.09h-.18c.01-.34.44-.6.59-.84.5-.81,1.03-1.72,1.47-2.44Z"/>
    <path class="cls-13" d="M18.85,16.04c0,.18,0,.36,0,.55-.25-.03-.43.32-.61.39-.13.05-.28,0-.36.09h-.49c.19-.09.39-.12.58-.24.28-.2.55-.64.88-.79Z"/>
    <path class="cls-21" d="M5.2,2.99l.18,1.15c-.08.07-.13.16-.18.24-.04,0-.08,0-.12,0,.03-.05.1-.2.11-.23.03-.13-.19-.74-.41-.74v-.42c.14,0,.28,0,.42,0Z"/>
    <path class="cls-25" d="M10.18,16.82c.38.2.6.03,1,.06.19.01.16-.03.15.18h-1.76c.03-.35.32-.4.61-.24Z"/>
    <path class="cls-5" d="M5.08,4.39c-.03.07-.04.16-.12.18-.06-.1-.04,0-.1.06h-.08v-1.21c.22,0,.44.61.41.74,0,.03-.08.18-.11.23Z"/>
    <path class="cls-21" d="M4.96,4.57l-.06.21.06.46.36.06v.51c0,.07-.1.02-.12.04v-.3s-.42-.07-.42-.07v-.85h.08c.06-.06.04-.16.1-.06Z"/>
    <path class="cls-29" d="M18.85,16.58c0,.16,0,.32,0,.49h-.97c.08-.1.24-.04.36-.09.18-.07.36-.42.61-.39Z"/>
    <path class="cls-4" d="M15.51,16.82l-.06.14.12.1h-.3c-.05-.29.16-.2.24-.24Z"/>
    <path class="cls-8" d="M5.45,5.24l.19.27c-.05.21-.16.28-.19.52,0,.02,0,.04,0,.06-.29.18,0,.63.26.65.07,0,.27-.03.22-.17l.71.04s.07-.04.08-.04c.12,0,.23.06.24.06v.06l-.06.09.13.12-.26.09-.04.3s-.22,0-.26,0l-.09.09c0,.2-.13.57,0,.73.08.1.3-.02.23.28-.03.14-.15.18-.17.26-.03.11.06.21.02.32-.05.16-.37.43-.4.58-.06.38.62.52.37,1.06-.09.19-.39.44-.51.61-.25.37-.05.47.09.85,0,.07,0,.14,0,.21l.06.04-.06.12c-.06-.13-.23-.25-.26-.32-.11-.23-.14-.58-.21-.82-.04-.12-.03-.21-.19-.2-.03-.11-.11-.52-.12-.55-.02-.2.03-.45,0-.64-.03-.24-.17-.66-.19-1.02-.04-.77-.07-1.98,0-2.74.02-.19,0-.23.19-.33.02-.01.12.04.12-.04v-.51s.06-.06.06-.06c.02,0,.04,0,.06,0Z"/>
    <path class="cls-21" d="M5.32,11.12c.16,0,.16.09.19.2.07.24.1.59.21.82.03.07.2.19.26.32.02.05.03.12.06.18.16.34.41.76.54,1.07.05.11-.07.18.19.14.02.06.04.11.06.18.03.12-.08.28.12.24,0,0,.04.06.06.12.24.59.96,1.26,1.35,1.9.05.08.03.18.17.16.04.15.24.39.12.55-.06-.13-.2-.23-.26-.32-1.42-2.09-2.38-3.02-3.07-5.57Z"/>
    <path class="cls-1" d="M16.42,13.67s-.05.04-.06.06c-.04,0-.08,0-.12,0,0,.06.01.13,0,.18,0,.02,0,.04,0,.06-.36.16-.53.62-.82.91-.07.07-.2.07-.24.12-.17.25-.33,1.01-.55,1.33-.13.19-.35.31-.51.49-.02-.46.58-.46.32-1.02,0-.01-.2-.23-.21-.24-.09-.04-.59-.04-.66,0-.08.06-.04.69-.62.51-.51-.15.21-.39.26-.44.1-.12.06-.48.36-.61.13-.06.26,0,.38-.05.36-.11.45-.1.79-.18.25-.06.48-.27.67-.39.05-.04.16,0,.22-.05.16-.1.36-.61.61-.64.03-.24-.02-.25.18-.42-.01.11.02.26,0,.36Z"/>
    <path class="cls-27" d="M14.85,12.64c-.04.17.1.1.12.12.12.09.18.21.24.3-.13.24-.34.76-.57.91-.19.12-.21.12-.4.27-.17.13-.59.19-.55-.15.37-.34.51-.66.61-1.15.02,0,.04,0,.06,0,.05,0,.12.02.17,0,.03-.03,0-.09,0-.11.02-.04.06-.07.06-.12.07-.02.2-.04.24-.06Z"/>
    <path class="cls-1" d="M13.76,13.61s-.15.22-.16.24c-.03.1-.03.21-.03.31-.08.06-.17.18-.24.24-.03.02-.15.02-.2.05-.06.05-.05.17-.13.25-.13.14-.31.2-.4.36-.11,0-.17.06-.18.06-.06,0-.12,0-.18,0-.04-.2.05-.17.18-.24.2-.1.06-.05.12-.12,0-.01.05,0,.06,0,.08-.06.29-.08.3-.27-.13-.17-.35-.14-.53-.2-.08-.03-.13-.13-.13-.14.22-.12.49-.22.73-.3.12-.04.26-.04.38-.08.13-.04.21-.23.41-.17Z"/>
    <path class="cls-22" d="M15.39,11.85s-.02.09.04.13c.08.06.23.06.33.06v-.24s.11,0,.17.1c.06.08.11.22.13.33-.23.07-.37.05-.61.09-.06.04-.11.26-.12.34,0,.02,0,.04,0,.06-.11,0-.3-.05-.36.06-.02-.02-.16.04-.12-.12.02,0,.04-.05.06-.06.1-.04.2-.09.3-.12.11-.13-.21-.19-.27-.18-.19,0-.56.23-.76.31-.04,0-.08,0-.12,0-.11,0-.22-.02-.3.06-.06,0-.12,0-.18,0-.02,0-.04,0-.06,0-.05-.18.22-.15.36-.18,0,0,.03.04.1.02.18-.05.55-.23.56-.45.02,0,.04,0,.06,0,.12-.02.35-.04.44-.06.04-.01.18-.3.35-.12Z"/>
    <path class="cls-34" d="M15.21,13.06c.38.56.12.4-.15.72-.21.24-.32.45-.61.66-.11.08-1.07.36-1.11.31v-.36c.08-.06.17-.18.24-.24.03-.03.09-.04.12-.06-.04.34.37.28.55.15.19-.14.2-.14.4-.27.24-.15.45-.67.57-.91Z"/>
    <path class="cls-1" d="M15.33,12.64c.15-.02.36.18.46.18.08,0,.49-.34.78-.24.13.03.07.22.12.28.02.03.1,0,.1.01.02.02-.01.13,0,.18h-.12s0,.08,0,.12h-.06c-.05-.2-.23-.16-.21-.43-.39.06-.52.17-.65.54h-.17c-.08-.27-.24-.28-.25-.6,0-.02,0-.04,0-.06Z"/>
    <path class="cls-15" d="M16.67,13.18c0,.08,0,.16,0,.24-.09.11-.07.11-.12.18l-.06.06h-.06c.02-.11-.01-.25,0-.36.05-.05.12-.08.18-.12h.06Z"/>
    <path class="cls-15" d="M18.85,8.7c0,.3,0,.61,0,.91-.21,0-.17.23-.3.34-.08.07-.2.07-.23.1-.05.05-.04.23-.13.32-.08.08-.22.07-.24.1-.04.05.01.2,0,.23,0,0-.17-.03-.12.12-.16.09-.3.2-.42.35-.09.11-.18.35-.19.37s-.36.06-.4.05c-.2-.01-1.13-.38-1.17-.65.15.02.25.06.42.06.04,0,.08,0,.12,0-.03.18.09.12.21.12.21,0,.4-.02.61.05.08-.02.12-.27.17-.37.08-.13.23-.14.22-.29.02,0,.04,0,.06,0,.3-.08.31.01.49-.3.25-.44.52-.86.71-1.32.05-.11.04-.2.2-.19Z"/>
    <path class="cls-11" d="M17.21,13.37c-.06.11.03.15-.18.18-.07.21-.03.4-.07.56-.03.1-.28.3-.33.51-.04.14-.04.59-.09.67-.02.03-.16.05-.23.11-.21.19-.27.57-.61.57.02-.04,0-.19.05-.26s.17-.06.23-.12c.3-.28.31-.84.42-1.12.03-.08.15-.09.19-.18.07-.13.08-.36.13-.51.04-.06.07-.16.12-.24.06,0,.12,0,.18,0,.04-.11.01-.19.18-.18Z"/>
    <path class="cls-15" d="M16.18,12.21c0,.06,0,.12,0,.18,0,.04,0,.08,0,.12.4-.22.58-.07.67.36h-.06s-.08.02-.1-.01c-.05-.06.01-.25-.12-.28-.29-.1-.7.24-.78.24-.1,0-.3-.2-.46-.18,0-.08.06-.3.12-.34.24-.04.38-.02.61-.09.03,0,.08,0,.12,0Z"/>
    <path class="cls-11" d="M18.85,10.76c0,.18,0,.36,0,.55-.78-.31-.69.48-.94.85-.04.06-.14.05-.15.06-.31.02.1-.29-.06-.49.02-.01.04-.04.06-.06.42-.31.39-.55.92-.79.05-.03.05-.15.17-.12Z"/>
    <path class="cls-13" d="M18.85,10.09c0,.22,0,.45,0,.67-.12-.04-.11.09-.17.12-.54.25-.5.48-.92.79-.04-.24.16-.32.27-.55.04-.1.02-.23.07-.3.04-.06.31-.12.41-.18.03-.02.42-.33.17-.36.02-.03-.02-.13,0-.18h.18Z"/>
    <path class="cls-13" d="M17.7,11.73c.16.2-.25.51.06.49-.19.31-.35.79-.55,1.15-.17,0-.14.08-.18.18-.06,0-.12,0-.18,0,.18-.3.14-.22.34-.44.41-.45.09-.98.36-1.31.06-.07.13-.04.15-.06Z"/>
    <path class="cls-28" d="M15.27,11.06c.14.1.28.14.49.3v.12s.12,0,.12,0c.19.19.38.29.37.58,0,.08-.06.14-.07.15-.04,0-.09,0-.12,0-.02-.11-.06-.24-.13-.33-.07-.09-.17-.09-.17-.1-.02-.02-.02-.08-.06-.12-.2-.2-.21-.23-.49-.36,0-.04,0-.08,0-.12,0-.05,0-.1.06-.12Z"/>
    <path class="cls-22" d="M18.85,9.61c0,.16,0,.32,0,.49h-.18c-.02.06.01.15,0,.18-.06.13-.56.32-.73.42,0,0,.06.03-.12.12-.05-.15.12-.11.12-.12.02-.04-.03-.19,0-.23.02-.02.16-.01.24-.1.1-.1.09-.28.13-.32.03-.03.16-.03.23-.1.13-.11.09-.34.3-.34Z"/>
    <path class="cls-22" d="M16.18,12.4c.21.04.04-.17.24-.22.17-.04.36.08.55-.03.04.25.12.48-.01.72h-.11c-.08-.42-.26-.57-.67-.36,0-.04,0-.08,0-.12Z"/>
    <path class="cls-25" d="M14.85,10.39c.3.09.74.24,1.03.4.1.05.19.06.18.21-.17,0-.27-.04-.42-.06-.08-.01-.16-.05-.24-.06-.02-.32-.53-.17-.55-.49Z"/>
    <path class="cls-15" d="M14.85,10.39c.02.32.53.17.55.49-.13-.02-.22-.05-.36-.06-.04,0-.09,0-.12,0,.04-.15-.13-.14-.24-.21-.06-.04-.11-.14-.12-.15v-.12c.07.02.19.03.3.06Z"/>
    <path class="cls-11" d="M14.91,10.82s.08,0,.12,0v.12c.27-.07.23.11.24.12-.06.02-.05.07-.06.12-.08-.02-.16-.05-.24-.06-.02,0-.04,0-.06,0l-.12-.27c0-.06.08-.02.12-.03Z"/>
    <path class="cls-22" d="M16.79,13.06s.09.07.05.2c-.03.11-.13.12-.18.17,0-.08,0-.16,0-.24,0-.04,0-.08,0-.12h.12Z"/>
    <path class="cls-15" d="M16.36,13.73c-.03.08-.01.15-.12.18.01-.05,0-.12,0-.18.04,0,.08,0,.12,0Z"/>
    <path class="cls-11" d="M15.76,11.36c.12.09.07.07.12.12h-.12s0-.12,0-.12Z"/>
    <path class="cls-22" d="M16.49,13.67l.06-.06s-.02.06-.06.06Z"/>
    <path class="cls-20" d="M8.54,9.42c.01.1-.09.29-.06.36h-.06c-.16.15-.78.44-.88.54-.08.08-.07.19-.12.24-.34.4-.47.22-.88.91,0,.01,0,.06-.02.1-.07.14-.29.06-.21.4.07.32.28.33.38.47.16.25.09.74.67.72.16,0,.36-.1.63-.11v.06c-.62.21-.51.87-.36,1.39-.53-.04-.42-.41-.56-.74-.23-.54-.51-1.17-1.02-1.44l-.06-.04c-.01-.07-.01-.14,0-.21.02-.18.36-1,.48-1.13.08-.08.21-.08.28-.15.15-.15.36-.51.52-.64.12-.1.31-.09.38-.15.06-.05.04-.16.1-.22.07-.07.65-.34.79-.4Z"/>
    <path class="cls-8" d="M7.02,14.4c.39.19.55.65.87.95.08.08.21.07.31.2.22.3.25.61.33.91-.15.02-.12-.08-.17-.16-.38-.65-1.11-1.31-1.35-1.9Z"/>
    <path class="cls-8" d="M6.05,12.64c.18-.04.09.11.16.19.06.06.21.08.29.18.09.12.22.66.28.84-.26.04-.14-.04-.19-.14-.13-.31-.38-.73-.54-1.07Z"/>
    <path class="cls-8" d="M6.96,14.28c-.2.04-.09-.12-.12-.24.15.04.1.16.12.24Z"/>
    <path class="cls-11" d="M18.85,11.61c0,.38,0,.77,0,1.15-.07.04-.4.18-.41.19-.03.04,0,.15-.03.19-.06.09-.13.09-.17.15-.06.11-.17.51-.2.55-.04.06-.23.04-.28.09-.04.04,0,.15-.01.17,0,0-.17-.03-.12.12-.01,0-.05-.01-.06,0l-.18-.21c.4-.16.03-.72.49-.79-.18-.52.21-.64.45-.93.14-.18.22-.33.33-.52.05-.08.05-.18.18-.15Z"/>
    <path class="cls-31" d="M6.72,11.49s0,.04,0,.06c-.01.16-.01.53.15.61.12.05.07-.21.21-.22.01-.03,0-.06,0-.08,0-.03-.02-.09,0-.12s.1,0,.12,0c-.02.18.09.4-.12.46l.14.26c.17.07.46-.24.5-.24.12,0,.24.06.27.19,0,.03,0,.08,0,.12l-.42.09c-.04.21.33.13.36.15.01,0,.02.22.18.18.01.01.17-.04.12.12-.1-.04-.17,0-.24,0-.27,0-.48.11-.63.11-.58.03-.51-.47-.67-.72-.09-.14-.3-.15-.38-.47-.08-.34.14-.26.21-.4.02-.05.01-.09.02-.1h.18Z"/>
    <path class="cls-34" d="M8.78,13.25c.13.06.6.23.67.3.12.13.2.31.18.49v.06s-.13,0-.18,0l-.06.55h-.12l-.05-.63-.19-.04c0-.19-.25-.5-.32-.71-.09-.05-.31.02-.35-.01-.01,0,.01-.11,0-.12.2-.06.29.06.42.12Z"/>
    <path class="cls-22" d="M7.99,12.64c.25-.01.22.22.55.24.2.01.36-.07.55-.06,0,0,.08.06.18.06.12,0,.24,0,.36,0,.25.01.48.04.73.06.22.02.43.1.61.12v.06c-.18-.01-.38.02-.55,0-.22-.03-.5-.16-.76-.17s-.6.1-.88.05c0,.04,0,.08,0,.12s0,.08,0,.12c-.13-.06-.23-.18-.42-.12,0,0-.11-.06-.12-.06.05-.16-.11-.11-.12-.12-.02-.02-.03-.11-.08-.16-.03-.03-.1-.02-.1-.02-.04-.05.06-.11.06-.12Z"/>
    <path class="cls-24" d="M9.02,13.97l.19.04.05.63h-.24c-.03-.3,0-.41,0-.67Z"/>
    <path class="cls-25" d="M12.24,15.13c.06,0,.12,0,.18,0l-.06.18c-.11-.02-.42.02-.36.18-.11-.01-.25,0-.36,0v-.18s.42-.07.42-.07v-.11c.07,0,.13,0,.19,0Z"/>
    <path class="cls-31" d="M11.33,15.37c.08.05-.11.11.3.12.12,0,.25-.01.36,0,.21.03.38.11.36.36-.02.03-.55.26-.62.3-.12.08-.15.32-.38.37-.41.08-1.45-.15-1.36-.73.17-.06.24-.2.36-.3.07.01.17,0,.24,0,0,0,.06.08.12.06v-.12s.08,0,.12,0c.1,0,.18-.05.24-.06.04,0,.23,0,.24,0Z"/>
    <path class="cls-34" d="M9.39,14.88c.2.11.27.4.3.61.14.04.22-.11.33-.12.13,0,.25.1.34.12-.12.1-.2.24-.36.3-.19.07-.4.08-.6.05-.14-.37-.15-.59,0-.96Z"/>
    <path class="cls-25" d="M9.63,14.82c.09.06.03.13.24.18.02,0,.04,0,.06,0l.28.29c.36-.04.29.04.39.13v.06c-.08,0-.18.01-.24,0-.09-.02-.2-.12-.34-.12-.11,0-.19.15-.33.12-.03-.21-.1-.5-.3-.61.02-.04,0-.09.06-.12.06.01.13.03.18.06Z"/>
    <path class="cls-1" d="M9.63,14.09s.07,0,.06.06c-.09.24-.12.41-.06.67-.05-.04-.12-.05-.18-.06l-.06-.12.06-.55c.06,0,.14-.01.18,0Z"/>
    <path class="cls-32" d="M14.67,2.99c.05.12-.12.12-.12.16-.03.2.2.31-.13.41-.19.05-.28-.04-.37-.03-.05,0-.05.13-.14.18-.41.17-.91.09-1.26.13-.13.02-.18.17-.31.19-.1,0-.21-.07-.35-.05-.23.03-.56.29-.78.37-.29.1-.66.15-.96.19l-.03.15c.34.17.39.61.76.73,0,.05,0,.13,0,.18,0,.02,0,.04,0,.06-.15.03-.13-.14-.26-.2-.16-.08-.52-.13-.71-.23.02-.29-.12-.25-.23-.4-.04-.06-.03-.18-.07-.23-.04-.06-.45-.06-.43-.34.1,0,.19.01.29.05l.13-.08-.18-.45c.37-.19.79.18,1.06.19.07,0,.55-.2.6-.24.08-.08.04-.33.13-.43s.4-.03.39-.3c.99,0,1.98,0,2.97,0Z"/>
    <path class="cls-19" d="M11.69,2.99c0,.27-.3.2-.39.3s-.05.36-.13.43c-.04.04-.53.24-.6.24-.27,0-.69-.38-1.06-.19l.18.45-.13.08c-.09-.04-.19-.05-.29-.05-.35.01-.67-.01-1.03-.06-.2-.03-.42-.12-.55-.12l.03-.49c-.2-.32-1.24-.04-1-.61,1.66,0,3.32,0,4.97,0Z"/>
    <path class="cls-34" d="M18.85,6.39c0,.59,0,1.17,0,1.76-.14-.03-.13.07-.17.16-.31.72-.42,1.01-.86,1.66-.12.18-.27.36-.36.55-.02,0-.04,0-.06,0-.54.14-.46.45-1.21.49-.04,0-.08,0-.12,0,0-.15-.08-.16-.18-.21-.29-.16-.73-.31-1.03-.4-.11-.03-.24-.04-.3-.06-.03,0-.07-.04-.12-.06-.18-.06-.31-.11-.49-.18v-.18c-.2.05-.24-.09-.3-.12.04,0,.08,0,.12,0s.08,0,.12,0c.1.16.31.2.49.24s.5.17.61.18c.09.09.51.31.6.33s.18-.04.27-.03c.05,0,.04.12.07.13.18,0,.63-.07.79-.18.09-.06.12-.2.16-.23.23-.14.34.03.4-.48.63.05.36-.32.45-.51.05-.09.21-.1.28-.27.26-.6.31-1,.29-1.64,0-.21.13-.5-.08-.64-.09-.06-.18-.04-.26-.07-.03-.01-.01-.1-.02-.1l.06-.06c-.14.01-.14-.07-.12-.18.41-.02.57-.13.97.12Z"/>
    <path class="cls-8" d="M6.72,2.99c-.24.57.81.29,1,.61l-.03.49c-.2,0-.51.25-.82.25-.11,0-.08-.12-.13-.13-.13-.02-.25.1-.38.04-.12-.05-.19-.3-.28-.33-.17-.05-.55.11-.69.24l-.18-1.15c.5-.01,1.01,0,1.52,0Z"/>
    <path class="cls-20" d="M15.45,2.99c-.03.24.27.74-.01.9-.1.06-.45-.21-.41.07-.02,0-.04,0-.06,0-.05-.14-.59-.18-.68-.17-.17.02-.52.13-.79.18-.89.15-1.88.24-2.62.78-.08.17.06.44.09.67-.37-.11-.42-.56-.76-.73l.03-.15c.31-.04.67-.09.96-.19.23-.08.55-.34.78-.37.14-.02.24.06.35.05.13-.01.17-.17.31-.19.36-.04.86.04,1.26-.13.09-.04.09-.17.14-.18.09-.01.18.08.37.03.33-.09.1-.21.13-.41,0-.05.17-.04.12-.16.26,0,.53,0,.79,0Z"/>
    <path class="cls-1" d="M18,3.05c.29,0,.56-.08.85-.06,0,.61,0,1.21,0,1.82-.07-.03-.21.06-.24.06-.27-.03-.49-.27-.68-.38-.18-.11-.32,0-.41-.29,0-.02,0-.04,0-.06.29-.2.43.42.72.08.05-.17-.21-.46-.22-.61s.08-.38-.02-.57Z"/>
    <path class="cls-26" d="M18.85,15.07s0,.08,0,.12l-1.5,1.3c-.07.17-.23.22-.36.34-.07.06-.08.18-.09.18h-.91c.35-.32.74-.57,1.1-.88s.66-.72,1.03-.97c.25-.16.44-.21.72-.09Z"/>
    <path class="cls-4" d="M18.85,13.61c0,.22,0,.45,0,.67-.29.07-.54.3-.73.52-.64.72-1.59,1.33-2.42,1.85.12-.32.6-.46.85-.64.7-.53.88-.97,1.4-1.57.15-.18.44-.38.6-.55.1-.1.04-.28.31-.27Z"/>
    <path class="cls-2" d="M16.55,2.99c-.11.2.05.32.07.52-.02.17-.3.09-.13.39-.03,0-.09,0-.12,0,0-.16-.2-.27-.32-.23l-.65.42s-.09,0-.12,0c-.05-.12-.13-.12-.24-.12-.04-.27.31-.01.41-.07.28-.16-.02-.66.01-.9.36,0,.73,0,1.09,0Z"/>
    <path class="cls-15" d="M18.85,4.81c0,.52,0,1.05,0,1.58-.4-.25-.57-.14-.97-.12-.08,0-.16,0-.24,0,0-.04.05-.08.06-.12.06,0,.13,0,.18,0,.1-.02.09,0,.18-.06.11-.07.09-.07.12-.18.08-.24-.21-.27-.18-.55.29.09.45-.04.73-.06.04-.11-.04-.18-.06-.24s-.02-.13-.06-.18c.03,0,.17-.09.24-.06Z"/>
    <path class="cls-34" d="M17.64,3.05c.11.46-.21.68-.12,1.09,0,.02,0,.04,0,.06h-.06c-.07-.08-.2-.11-.3-.12-.05-.39-.32-.68-.24-1.09.25,0,.47.06.73.06Z"/>
    <path class="cls-25" d="M18,3.05c.1.19,0,.42.02.57s.27.44.22.61c-.3.34-.43-.29-.72-.08-.09-.41.23-.63.12-1.09.12,0,.26,0,.36,0Z"/>
    <path class="cls-31" d="M16.91,2.99c-.08.41.19.7.24,1.09-.04,0-.08,0-.12,0v.12c-.11,0-.22-.06-.3-.06.03-.11-.16-.23-.24-.24-.17-.3.11-.22.13-.39-.02-.19-.18-.31-.07-.52.12,0,.24,0,.36,0Z"/>
    <path class="cls-1" d="M18.85,8.15c0,.18,0,.36,0,.55-.16,0-.16.09-.2.19-.19.46-.46.88-.71,1.32h-.12s0-.24,0-.24c.44-.65.55-.95.86-1.66.04-.09.03-.19.17-.16Z"/>
    <path class="cls-28" d="M18.85,12.76c0,.18,0,.36,0,.55-.26-.08-.18.21-.3.27-.09.05-.22,0-.29.04-.03.02-.15.26-.22.33-.09.09-.24.11-.28.14,0,0-.03.05-.12.12-.05-.15.12-.11.12-.12.01-.02-.03-.13.01-.17.05-.05.24-.03.28-.09.03-.04.14-.44.2-.55.03-.06.11-.07.17-.15.03-.04,0-.14.03-.19.01-.02.34-.16.41-.19Z"/>
    <path class="cls-23" d="M5.38,4.15c.14-.13.52-.28.69-.24.1.03.16.28.28.33.14.06.26-.06.38-.04.05,0,.01.13.13.13.32,0,.62-.25.82-.25.13,0,.35.09.55.12v.08c-.07.08-.2.09-.18.22-.04,0-.11.01-.12,0-.01,0-.02-.16-.09-.18-.1-.02-.13.11-.15.12-.03.02-.28.12-.3.12-.05.01-.13-.01-.18,0l-.43-.15-.6.03v-.17c-.1-.1-.85-.14-.73.17-.08.02-.14-.05-.18-.06-.02,0-.04,0-.06,0,.05-.09.11-.17.18-.24Z"/>
    <path class="cls-7" d="M5.2,4.39s.04,0,.06,0v.57c.29.07.13.04.12.28l-.06.06-.36-.06-.06-.46.06-.21c.08-.02.09-.12.12-.18.04,0,.08,0,.12,0Z"/>
    <path class="cls-19" d="M6.72,7.3s-.02.08.01.11h.23s-.18.28-.18.28c.19.82,1.63-.22,1.93.05.12.11-.02.49-.13.58s-.31.07-.41.18c-.17.2-.04.35-.07.52-.02.11-.38.52-.48.56s-.24.02-.3.06c-.08.05-.03.24-.09.34-.04.08-.28.15-.36.24-.14.15-.14.46-.45.43.26-.54-.42-.68-.37-1.06.02-.15.35-.43.4-.58.04-.11-.05-.21-.02-.32.02-.08.14-.12.17-.26.07-.31-.14-.18-.23-.28-.14-.16,0-.54,0-.73l.09-.09s.25-.02.26,0Z"/>
    <path class="cls-23" d="M7.33,6.63c-.04.14.23.12.09.31-.08.11-.59.03-.57.26l.05.16.48-.06c.06,0,.13,0,.18,0,.13.2.3.06.46.06.17,0,.44.07.6.06.09,0,.45-.08.4-.24.05,0,.13,0,.18,0,.06.08.03.33,0,.42-.16.51-.17.85-.3,1.33-.03.1-.1.37-.15.43-.08.08-.16.04-.21.06-.14.06-.72.32-.79.4-.06.06-.04.17-.1.22-.07.06-.26.05-.38.15-.15.12-.36.49-.52.64-.06.06-.2.06-.28.15-.12.12-.47.94-.48,1.13-.14-.38-.34-.48-.09-.85.12-.17.42-.42.51-.61.31.03.31-.28.45-.43.08-.09.32-.16.36-.24.05-.1,0-.28.09-.34.07-.04.21-.02.3-.06s.46-.45.48-.56c.03-.17-.1-.32.07-.52.1-.12.3-.09.41-.18.11-.1.26-.47.13-.58-.3-.26-1.74.78-1.93-.05l.18-.26h-.23s0-.12-.01-.12l.04-.3.26-.09-.13-.12.06-.09.24.06v-.12s.08,0,.12,0Z"/>
    <path class="cls-27" d="M5.26,4.39s.11.08.18.06c-.12-.31.63-.27.72-.17v.17s.61-.03.61-.03l.43.15s-.17.03-.18.06c-.15-.07-.33.04-.49,0-.04-.01-.09-.13-.27-.12-.21,0-.36.22-.58.18.15-.35-.11-.12-.24-.06-.02.12.13.01.19.1.06.07,0,.29.06.38.1.02.2,0,.3,0l-.06.12s-.05.06-.14.06c-.11,0-.21-.06-.34-.06-.02,0-.04,0-.06,0,0-.24.16-.21-.12-.28v-.57Z"/>
    <path class="cls-7" d="M6.29,5.18s.04,0,.06,0l.12.21c-.03.15-.53.21-.36.4-.06.03-.14.12-.18.18,0,0-.04,0-.06,0v-.12s-.09,0-.09,0c-.06,0-.02.09-.03.12-.03.06-.12.24-.12.27,0,.06.11.02.12.03,0,0-.03.1.04.12.05.02.48.08.5.06v-.12c.13.02.33.11.42.12v.12s-.03.04-.08.04l-.71-.04c-.29-.04-.49-.2-.49-.49,0-.02,0-.04,0-.06l.67-.64-.09-.15s-.06,0-.09,0l.06-.12c.12.02.21.04.3.06Z"/>
    <path class="cls-23" d="M5.93,5.24s.06,0,.09,0l.09.15-.67.64c.03-.24.13-.31.19-.52l-.19-.27c.14,0,.23.05.34.06.09,0,.13-.06.14-.06Z"/>
    <path class="cls-24" d="M6.72,6.45c.08,0,.21-.09.32-.06.04,0,.04.12.08.13.18.02.51-.25.57.12-.1,0-.26,0-.36,0-.04,0-.08,0-.12,0-.08,0-.16,0-.24,0-.01,0-.13-.05-.24-.06v-.12Z"/>
    <path class="cls-23" d="M5.45,6.09c0,.29.19.45.49.49.05.14-.16.17-.22.17-.26-.02-.55-.47-.26-.65Z"/>
    <path class="cls-7" d="M7.2,6.63v.12s-.24-.06-.24-.06v-.06c.08,0,.16,0,.24,0Z"/>
    <path class="cls-16" d="M14.18,12.58c.29,0,.24.02.56-.07.11-.03.18-.13.16.07-.02,0-.04.05-.06.06-.04.02-.17.04-.24.06-.06.02-.13.05-.18.06-.38.08-.81.04-1.15.24-.08,0-.16,0-.24,0-.12,0-.24,0-.36,0v.12c-.5.03-.96.17-1.46.24l-.24-.06v.12c-.11.02-.25-.01-.36,0-.08,0-.17-.01-.24,0-.06-.06-.16-.1-.24-.12l.04-.05h.26s0-.13,0-.13c.17.02.37-.01.55,0,.03,0,.14.11.24.06v-.12c.06,0,.12,0,.18,0,.47.01.73-.07,1.21-.16.11-.02.23.03.19-.14.04,0,.08,0,.12,0,.08.09.17.08.24,0,.04,0,.08,0,.12,0,.1,0,.2,0,.3,0v-.12c.06,0,.12,0,.18,0,.02,0,.19.12.3.06v-.12s.08,0,.12,0Z"/>
    <path class="cls-25" d="M14.3,12.94c-.1.5-.24.81-.61,1.15-.03.03-.09.03-.12.06,0-.1,0-.21.03-.31,0-.01.14-.21.16-.24.06-.08.28-.24.29-.26.02-.04-.07-.26.01-.35.04,0,.16-.05.24-.06Z"/>
    <path class="cls-11" d="M14.42,12.76v.06l-.06.12s-.04,0-.06,0c-.08.01-.2.06-.24.06-.06,0-.12,0-.18,0-.17.01-.43,0-.61,0,.34-.2.77-.16,1.15-.24Z"/>
    <path class="cls-25" d="M14.54,12.82s.02.09,0,.11c-.05.03-.12,0-.17,0l.06-.12h.12Z"/>
    <path class="cls-22" d="M14.6,12.7c0,.05-.04.08-.06.12h-.12v-.06c.05-.01.12-.04.18-.06Z"/>
    <path class="cls-17" d="M12.18,13.37c.17-.04.28-.12.44-.12.19.11.08.39.34.42v.18c-.24.08-.51.18-.73.3-.14-.05-.74.05-.97.06l.03-.24c-.27.02-.77.15-.76-.24-.15,0-.2.15-.38.2-.16.05-.37-.04-.53.1.02-.18-.06-.36-.18-.49.14-.19.26.12.39.12.11,0,.37-.21.52-.24.07-.01.17,0,.24,0,0,.23-.04.16.14.16.29,0,.61-.05.89-.1-.06.54.26.34.61.24l-.24-.12.18-.24Z"/>
    <path class="cls-18" d="M11.27,14.22c.23,0,.83-.11.97-.06,0,0,.06.11.13.14.18.06.4.03.53.2,0,.19-.22.21-.3.27l.06-.3c-.21-.06-.39.12-.57.12-.2,0-.44-.13-.66-.12-.2.01-.44.15-.65.18-.06,0-.13.01-.18,0-.18-.04-.4-.06-.61-.03l-.12.4c-.21-.05-.16-.12-.24-.18-.06-.26-.03-.42.06-.67.52.05,1.05.08,1.58.06Z"/>
    <path class="cls-22" d="M10.78,14.64c.21-.03.44-.17.65-.18.22-.01.46.12.66.12.19,0,.36-.18.57-.12l-.06.3s-.05-.01-.06,0h-.12s0,.12,0,.12c-.14.07-.22.04-.18.24-.06,0-.12,0-.18,0-.24.03-.51.18-.73.18-.06,0-.1-.06-.12-.06.21-.16.71-.23.87-.36.07-.06.03-.11.04-.19-.28-.06-.56.06-.82.07-.1,0-.2-.05-.3-.05-.13,0-.24.15-.21-.07Z"/>
    <path class="cls-18" d="M14.06,13c-.08.09.01.31-.01.35,0,.02-.24.18-.29.26-.2-.07-.28.12-.41.17-.12.04-.26.03-.38.08v-.18c.25-.14.56-.3.79-.45.1-.07.15-.02.12-.21.06,0,.12,0,.18,0Z"/>
    <path class="cls-18" d="M12.54,14.76c-.06.07.08.02-.12.12v-.12s.12,0,.12,0Z"/>
    <path class="cls-24" d="M13.57,10.39s-.1.12.18.12c.04,0,.08,0,.12,0,.04.04.08.08.12.12.05.32.45.48.44.84l.41.07c.04.23.1.34-.24.3v.18s-.04,0-.06,0c-.06.01-.22-.02-.24,0h-.12s0,.12,0,.12c-.06,0-.13-.01-.18,0-.27.05-.69.12-.93.18-.07.02-.06.16-.14.18-.15.04-.67-.33-.82.19-.18.02-.35.07-.52.12l-.51.25s-.08,0-.12,0c-.18-.02-.39-.1-.61-.12l-.12-.3c.1,0,.21-.05.3-.06.11-.01.25,0,.36,0,.06,0,.28.19.36-.06.02,0,.04,0,.06,0,.16-.03.23-.08.36-.12.06-.02.17.01.24,0-.02-.13-.08-.26-.07-.4,0-.03.09-.13.13-.21.07-.02.13-.05.18-.06.22-.06.18.12.15-.24.3-.1.41-.23.46-.54,0-.04,0-.08,0-.12h.12s0-.12,0-.12c.28-.01.55-.38.67-.3ZM13.69,11.55l.28-.06.02-.33-.4-.21c-.26.27-.81.15-.87.57-.02.19.12.13.12.18,0,.09-.17.53-.12.57.37-.05.7-.26,1.09-.24l-.12-.24.24-.12-.24-.12Z"/>
    <path class="cls-34" d="M14,12.15l-.12.3c-.14.03-.41,0-.36.18-.08,0-.16,0-.24,0,0,0-.06-.06-.15-.06-.13,0-.4.06-.52.12-.08,0-.16,0-.24,0s-.17,0-.24,0c.15-.52.67-.15.82-.19.07-.02.07-.16.14-.18.24-.06.66-.13.93-.18Z"/>
    <path class="cls-25" d="M15.51,11.67c-.06.02-.15.11-.12.18-.17-.18-.31.11-.35.12-.09.03-.32.04-.44.06v-.18c.34.04.28-.07.24-.3,0-.06,0-.12,0-.18.21.09.53.06.67.3Z"/>
    <path class="cls-12" d="M14.18,12.58c.2-.07.57-.3.76-.31.06,0,.38.06.27.18-.1.04-.21.08-.3.12.02-.2-.05-.1-.16-.07-.32.1-.28.07-.56.07Z"/>
    <path class="cls-25" d="M14.54,12.03c-.01.21-.39.4-.56.45-.08.02-.1-.02-.1-.02l.12-.3c.05-.01.12,0,.18,0,.2-.03.09-.1.12-.12s.18.01.24,0Z"/>
    <path class="cls-1" d="M15.7,11.67s.05.1.06.12v.24c-.1,0-.25,0-.33-.06-.06-.04-.03-.12-.04-.13-.03-.08.06-.16.12-.18.04-.01.13,0,.18,0Z"/>
    <path class="cls-12" d="M14.06,12.58v.12c-.11.06-.29-.06-.3-.06.09-.08.2-.07.3-.06Z"/>
    <path class="cls-12" d="M13.51,12.64s.04,0,.06,0v.12c-.1,0-.2,0-.3,0v-.12c.08,0,.16,0,.24,0Z"/>
    <path class="cls-25" d="M17.4,10.52c.01.15-.15.16-.22.29-.06.1-.09.35-.17.37-.2-.08-.4-.04-.61-.05-.12,0-.24.06-.21-.12.75-.03.67-.35,1.21-.49Z"/>
    <path class="cls-25" d="M17.82,9.97v.24s.12,0,.12,0c-.18.32-.18.22-.49.3.1-.18.24-.37.36-.55Z"/>
    <path class="cls-18" d="M14.91,11.12s.04,0,.06,0c-.04.18.14.13.24.18.27.13.28.16.49.36-.05,0-.14-.01-.18,0-.14-.24-.46-.22-.67-.3-.02,0-.04-.05-.06-.06v-.18s.09-.01.12,0Z"/>
    <path class="cls-29" d="M15.21,11.18s0,.08,0,.12c-.11-.05-.28,0-.24-.18.08.01.16.04.24.06Z"/>
    <path class="cls-29" d="M14.42,10.45s.1-.01.12,0c.01,0,.06.11.12.15.11.07.28.06.24.21-.05,0-.13-.03-.12.03l.12.27s-.1.01-.12,0c-.04-.02-.65-.6-.67-.64-.07-.17.25-.05.3-.03Z"/>
    <path class="cls-25" d="M14.54,10.33v.12s-.09.01-.12,0v-.18c.05.02.09.05.12.06Z"/>
    <path class="cls-24" d="M8.48,9.79s.12.03.12.14c0,.1-.09.23-.06.36,0,.01.17.16.19.16h-.12c-.04.1.04.13.06.18.07.16.16.17.18.22.02.07-.04.17-.03.27.06.39.11.28.1.78,0,.28.23.61.18.91-.19,0-.35.08-.55.06-.1-.25.17-.25.19-.39.02-.21-.16-.58-.17-.74,0-.09.09-.19.11-.3.03-.24,0-.42-.13-.63-.05-.03-.23.03-.29.05.09-.33.18-.41.18-.79,0-.1,0-.2,0-.3h.06Z"/>
    <path class="cls-7" d="M8.9,8.94l.3-.12c.04.19-.15.39-.17.53-.01.12.06.23.05.35,0,.3-.17.48.12.76-.02.02-.04.04-.06.06-.11-.02-.37-.04-.42-.06-.01,0-.18-.15-.19-.16-.03-.12.06-.25.06-.36,0-.11-.11-.13-.12-.14-.03-.08.07-.26.06-.36.05-.02.13.03.21-.06.05-.06.12-.33.15-.43Z"/>
    <path class="cls-2" d="M8.42,9.79c0,.1,0,.2,0,.3-.25-.05-.3.17-.41.24-.39.26-.38.18-.68.61-.28,0-.44.19-.55.42-.02.04-.05.05-.06.12h-.18c.41-.7.53-.51.88-.91.05-.06.05-.17.12-.24.1-.1.72-.39.88-.54Z"/>
    <path class="cls-20" d="M7.75,11.36c.11-.07.41-.26.51-.25.32.32-.15.56-.15.7,0,.04.12.02.12.07.01.17-.09.18.12.42l-.36.09c-.04-.12-.15-.18-.27-.19-.04,0-.33.31-.5.24l-.14-.26c.21-.06.1-.27.12-.46.07-.04.08-.05.12-.12h.3s0-.12,0-.12c.04-.03.08-.09.12-.12Z"/>
    <path class="cls-7" d="M8.24,10.88c.07-.03.24-.08.29-.05.14.2.16.38.13.63-.01.11-.11.2-.11.3.01.16.19.53.17.74-.01.14-.28.14-.19.39-.32-.02-.3-.25-.55-.24,0-.04,0-.08,0-.12,0-.04,0-.1,0-.12l.36-.09c-.21-.24-.11-.24-.12-.42,0-.05-.12-.03-.12-.07,0-.14.47-.38.15-.7-.1-.01-.4.18-.51.25.05-.14.32-.42.49-.49Z"/>
    <path class="cls-1" d="M7.14,11.18c.07-.03.22-.03.3-.06.04.04-.08.42-.12.49-.04.07-.05.08-.12.12-.02.01-.09-.02-.12,0s0,.09,0,.12l-.24.06v-.36s-.12,0-.12,0c0-.02,0-.04,0-.06.01-.07.04-.09.06-.12.2.04.17-.11.36-.18Z"/>
    <path class="cls-34" d="M6.72,11.55h.12s0,.36,0,.36l.24-.06s.01.05,0,.08c-.14.02-.09.28-.21.22-.17-.07-.16-.45-.15-.61Z"/>
    <path class="cls-15" d="M7.99,12.52s0,.08,0,.12c0,0-.1.08-.06.12,0,0,.08-.01.1.02.05.06.06.14.08.16-.16.04-.17-.17-.18-.18-.04-.02-.4.06-.36-.15l.42-.09Z"/>
    <path class="cls-30" d="M9.63,14.03c.17-.14.38-.05.53-.1.17-.05.22-.2.38-.2-.01.39.49.27.76.24l-.03.24c-.53.01-1.06,0-1.58-.06,0-.06-.02-.05-.06-.06v-.06Z"/>
    <path class="cls-30" d="M10.12,13.31c.08.02.18.06.24.12-.15.03-.4.25-.52.24-.13,0-.25-.31-.39-.12-.07-.07-.53-.24-.67-.3,0-.04,0-.08,0-.12.42.04.93.09,1.33.18Z"/>
    <path class="cls-28" d="M10.42,13.12v.12s-.26.01-.26.01l-.04.05c-.41-.09-.92-.14-1.33-.18,0-.04,0-.08,0-.12.28.06.63-.06.88-.05s.54.14.76.17Z"/>
    <path class="cls-27" d="M8.9,11.91c.4.03.24.13.34.3.06.11.19.17.27.31.05.09.04.16.06.24h-.3s0,.12,0,.12c-.1,0-.17-.06-.18-.06.05-.3-.19-.63-.18-.91Z"/>
    <path class="cls-34" d="M9.51,12.52c.26,0,.4.12.63-.05l.4.11c-.1,0-.2.07-.3.06l.12.3c-.25-.03-.47-.05-.73-.06,0-.05-.05-.09-.06-.12-.02-.08,0-.15-.06-.24Z"/>
    <path class="cls-1" d="M9.57,12.76s.06.07.06.12c-.12,0-.24,0-.36,0v-.12s.3,0,.3,0Z"/>
    <path class="cls-12" d="M11.09,13.06s.08,0,.12,0v.12c-.1.05-.21-.06-.24-.06v-.06s.08,0,.12,0Z"/>
    <path class="cls-1" d="M12.06,15.13v.11s-.42.07-.42.07v.18c-.42-.02-.23-.07-.31-.12v-.06c.22,0,.49-.15.73-.18Z"/>
    <path class="cls-22" d="M10.6,14.64c.07.25-.38.02-.3.21.05.11.64.35.79.4v.12c-.06,0-.14.05-.24.06-.12-.36-.61-.33-.91-.42-.02,0-.04,0-.06,0l.12-.4c.21-.02.42,0,.61.03Z"/>
    <path class="cls-18" d="M10.84,15.43s-.08,0-.12,0-.11,0-.12,0c-.1-.09-.03-.17-.39-.13l-.28-.29c.3.09.79.07.91.42Z"/>
    <path class="cls-18" d="M11.21,15.25s.06.06.12.06v.06s-.2,0-.24,0v-.12s.08,0,.12,0Z"/>
    <path class="cls-34" d="M10.72,15.43v.12c-.06.02-.11-.06-.12-.06v-.06s.08,0,.12,0Z"/>
    <path class="cls-20" d="M9.27,4.27c-.02.28.39.28.43.34.03.05.02.17.07.23.11.15.25.11.23.4,0,.01-.06.07-.06.15,0,.24.15,1.49.27,1.61.06.07.08.07.17.05.36-.07.18-.56.47-.72-.11.38-.21.88-.28,1.27-.02.12-.1.21.09.18,0,.04,0,.08,0,.12l-.07.17h-.17c-.01-.29.07-.57-.36-.53-.08.39-.38.5-.19.97l-.19.03c.05.18-.1.44-.06.59.02.06.15.05.18.14.03.08,0,.18.03.28.05.18.16.17.05.45-.04.11-.18.07-.13.23.01.05.22.07.18.21-.36.04-.41-.2-.73,0-.29-.28-.12-.46-.12-.76,0-.12-.07-.23-.05-.35.02-.14.21-.34.17-.53l-.3.12c.13-.49.14-.83.3-1.33.43.23.63-.82.67-1.09.03-.18.05-.42,0-.63-.01-.05-.11-.04-.12-.08-.08-.33.1-.44-.18-.82-.36-.5-.97-.38-1.52-.47-.02-.14.11-.15.18-.22v-.08c.36.05.68.07,1.03.06Z"/>
    <path class="cls-2" d="M14.97,3.96c-.14.02-.39.12-.54.15-.11.02-.49-.03-.49.21-.05,0-.13,0-.18,0-.09-.1-.34-.08-.46-.06-.19.02-.27.11-.36.13-.19.02-.39-.18-.45.18-.04,0-.08,0-.12,0-.17,0-.37-.12-.62-.05-.03,0-.48.33-.5.35-.13.22.05.64.04.88,0,.06-.15.45-.19.58-.11.36-.27.57-.24.97h-.12c.02.17-.06.33-.06.49-.19.03-.11-.07-.09-.18.06-.39.17-.89.28-1.27,0-.02,0-.04,0-.06s0-.04,0-.06c.03-.09.13-.19.18-.42,0-.03.1-.09.06-.18h-.12c0-.06,0-.13,0-.18-.03-.23-.17-.5-.09-.67.74-.54,1.73-.63,2.62-.78.27-.04.62-.15.79-.18.1-.01.64.03.68.17Z"/>
    <path class="cls-19" d="M9.99,5.24c.2.1.55.15.71.23.12.06.1.23.26.2,0,.04,0,.09,0,.12-.02.05-.18.2-.18.42,0,.03.02.07.06.06,0,.02,0,.04,0,.06-.29.16-.11.65-.47.72-.09.02-.11.02-.17-.05-.12-.13-.27-1.37-.27-1.61,0-.08.06-.14.06-.15Z"/>
    <path class="cls-20" d="M10.97,5.6h.12c.04.09-.05.15-.06.18h-.06s0-.08,0-.12c0-.02,0-.04,0-.06Z"/>
    <path class="cls-31" d="M17.76,6.51s.17,0,.18,0c0,0-.01.09.02.1.08.04.17.01.26.07.21.15.08.43.08.64.02.64-.03,1.04-.29,1.64-.07.17-.24.18-.28.27-.1.19.18.56-.45.51-.06.5-.17.33-.4.48-.04.03-.07.17-.16.23-.16.11-.61.19-.79.18-.04,0-.03-.12-.07-.13-.09-.02-.17.05-.27.03s-.51-.24-.6-.33c.2.02.34-.06.42-.06.1,0,.21,0,.3,0,.01.18.04.15.18.15.2,0,.91-.03.96-.26.02-.08-.07-.2-.03-.26.35-.12.52-.09.47-.54l.3-.11c.01-.17-.03-.37,0-.53.03-.14.17-.23.18-.37.01-.19-.22-.28-.18-.6.03-.28.36-.49.3-.79-.1-.3-.93.12-1.15.14.14-.2.41-.42.65-.48.04,0,.31,0,.38-.01Z"/>
    <path class="cls-15" d="M13.57,10.27s-.15-.34-.12-.36c.2-.02.29.1.48.18.17.07.3.12.49.18v.18c-.05-.02-.37-.14-.3.03.02.04.63.62.67.64v.18c-.44-.2-.23-.17-.48-.46-.08-.09-.23-.14-.3-.21-.04-.04-.08-.08-.12-.12,0,0,.02-.07-.02-.1-.01-.01-.27-.12-.28-.14Z"/>
    <path class="cls-2" d="M14.36,9.85c.28.04.56.1.84.16.11.02.23-.03.19.14-.09,0-.23.08-.42.06-.1-.01-.44-.14-.61-.18v-.18Z"/>
    <path class="cls-31" d="M14.24,9.85s.08,0,.12,0v.18c-.17-.04-.38-.08-.49-.24.12.01.24.04.36.06Z"/>
    <path class="cls-1" d="M17.88,6.27c-.02.12-.02.2.12.18l-.06.06s-.14,0-.18,0c-.08-.05-.12-.08-.12-.18,0-.02,0-.04,0-.06.08,0,.16,0,.24,0Z"/>
    <path class="cls-25" d="M13.51,9.73c.11.02.09.04.12.06.06.04.1.18.3.12v.18c-.2-.08-.28-.2-.48-.18-.03.03.09.33.12.36.01.02.27.13.28.14.04.04.01.1.02.1-.04,0-.08,0-.12,0-.01-.11-.16-.1-.18-.12-.01-.01,0-.09,0-.12-.31.03-.69-.14-.79.24-.04,0-.08,0-.12,0v-.18c.19,0,.16-.25.24-.36,0,0,.13.02.13-.03l-.13-.33c.21.05.43.1.61.12Z"/>
    <path class="cls-31" d="M15.27,4.09c-.37.07-.27.09-.7.07-.03,0-.02.08-.05.09-.11.04-.25.01-.29.15-.04,0-.08,0-.12,0,0,0-.05-.06-.18-.06,0-.24.38-.19.49-.21.15-.03.41-.14.54-.15.02,0,.04,0,.06,0,.11,0,.19,0,.24.12Z"/>
    <path class="cls-29" d="M16.73,4.15c.08,0,.2.05.3.06s.24.09.42,0h.06c.09.29.23.18.41.29.19.12.41.35.68.38.04.06.04.12.06.18l-.7.12c-.06,0-.02-.08-.03-.12,0-.04.02-.08,0-.12l-.18-.04.24-.12-.06-.15c-.21-.16-.49,0-.67,0-.13,0-.51-.13-.63-.12-.02,0-.07.21-.28.12l.06-.18c-.24-.11-.33.05-.51.07-.16.02-.55-.17-.52.06-.33-.02-.85-.02-1.18,0-.2.01-.5.14-.68.11-.1-.01-.08-.03-.07-.11.23-.04.46-.07.67-.18.04,0,.08,0,.12,0,.11,0,.48.07.57.06.04,0,0-.11.12-.13.2-.03.47,0,.67.07l.07-.13c.39.18.66-.13,1.06-.12Z"/>
    <path class="cls-1" d="M16.49,3.9c.08.02.27.14.24.24-.4,0-.67.3-1.06.12l-.07.13c-.19-.07-.47-.1-.67-.07-.12.02-.08.13-.12.13-.09,0-.46-.05-.57-.06.04-.13.18-.1.29-.15.02,0,.02-.09.05-.09.43.02.33,0,.7-.07.04,0,.08,0,.12,0,.21-.02.48,0,.7,0,.02,0,.1-.16.27-.17.03,0,.09,0,.12,0Z"/>
    <path class="cls-31" d="M16.36,3.9c-.17.02-.25.17-.27.17-.22,0-.49,0-.7,0l.65-.42c.12-.03.33.08.32.23Z"/>
    <path class="cls-11" d="M16.79,5.42c.06,0,.12,0,.18,0-.05.16.3.22.42.24.03,0,.09,0,.12,0,0,.27.48.1.36.49-.06,0-.12,0-.18,0-.07,0-.13,0-.18.06h-.24l-.55-.06v-.12c.17,0,.35.01.52,0,.07,0,.2.03.15-.09-.08-.19-.62-.29-.79-.33-.22-.06-.44-.14-.67-.18-.02-.28.43-.03.53-.01s.22,0,.32.01Z"/>
    <path class="cls-18" d="M17.94,5.06s-.03.12.03.12l.7-.12c.02.06.1.13.06.24-.28.02-.44.15-.73.06-.03.27.26.3.18.55-.03-.02-.1-.04-.12-.06-.02-.02-.04-.04-.06-.06-.02-.03.06-.19-.24-.12-.06-.08-.17-.05-.18-.06-.24-.2-.23-.54.12-.36,0-.06,0-.12,0-.18.08,0,.16,0,.24,0Z"/>
    <path class="cls-29" d="M17.76,5.66s0,.09,0,.12h.24s.04.04.06.06v.24c-.09.06-.09.04-.18.06.12-.38-.36-.21-.36-.49.01,0,.04-.05.06-.06.01,0,.13-.02.18.06Z"/>
    <path class="cls-29" d="M17.7,6.15s-.05.08-.06.12c0,.02,0,.04,0,.06-.04,0-.09-.01-.12,0v-.12c.05-.06.11-.05.18-.06Z"/>
    <path class="cls-22" d="M18.18,5.91c-.04.11-.01.11-.12.18v-.24s.09.04.12.06Z"/>
    <path class="cls-1" d="M17.15,4.09c.1,0,.23.04.3.12-.18.09-.32,0-.42,0v-.12s.08,0,.12,0Z"/>
    <path class="cls-12" d="M7.2,4.57c.06-.01.13.01.18,0v.24s.18-.06.24-.06c.22,0,.48.09.73.12.05.2.1.2.3.18v.12h-.06c-.38-.05-.79.02-1.15.06-.11.01-.28-.02-.36,0v-.12c-.06,0-.13,0-.18,0-.04,0-.08,0-.12,0-.07-.01-.15-.08-.24-.06l.06-.18h-.18s0-.12,0-.12c.03,0,.08,0,.12,0,.13.03.27.11.45.06.08-.02.01-.14.03-.19.01-.03.14-.05.18-.06Z"/>
    <path class="cls-27" d="M8.05,4.51c.54.09,1.15-.03,1.52.47.28.38.11.49.18.82.01.04.11.04.12.08.05.2.03.45,0,.63-.05-.01-.15.02-.18,0-.03-.01-.02-.1-.18-.12v-.12c0-.11.02-.28,0-.36.33-.03-.08-.45-.13-.56-.04-.09-.04-.27-.05-.28-.03-.02-.15.02-.22-.02-.42-.24-.58-.41-1.17-.47v-.06s.08,0,.12,0Z"/>
    <path class="cls-20" d="M7.93,4.51v.06c-.07,0-.17,0-.24,0v-.12s.05-.15.15-.12c.07.02.08.17.09.18Z"/>
    <path class="cls-27" d="M7.69,4.45v.12s-.04.06-.06.06c-.07.01-.17,0-.24,0v-.06s.27-.11.3-.12Z"/>
    <path class="cls-24" d="M8.9,6.51c.12,0,.32-.02.42,0,.04,0,.15.1.24.12l-.06.24h.12c-.03.08-.03.16-.07.23-.12-.04-.31.07-.36.07-.06,0-.13,0-.18,0-.09-.01-.22-.11-.3-.12l.12-.3c-.15-.11-.81.16-.98.26-.11.07-.13.07-.11.22-.09.01-.16.06-.18.06-.06,0-.12,0-.18,0l-.03-.24c.27.04.49-.13.45-.42.35-.04.74-.11,1.09-.12Z"/>
    <path class="cls-7" d="M8.72,7.06c.08,0,.22.11.3.12.04.16-.31.23-.4.24-.16.02-.43-.05-.6-.06-.16,0-.33.14-.46-.06.03,0,.09-.05.18-.06.2-.03.4-.1.61-.12,0,0,.05.08.14.05.07-.02.09-.11.1-.11.02,0,.09,0,.12,0Z"/>
    <path class="cls-7" d="M7.69,6.63s.08,0,.12,0c.04.29-.18.47-.45.42l.03.24-.48.06-.05-.16c-.02-.23.49-.15.57-.26.14-.18-.13-.17-.09-.31.1,0,.26,0,.36,0Z"/>
    <path class="cls-7" d="M9.87,6.51c-.04.27-.24,1.32-.67,1.09.03-.09.06-.34,0-.42.05,0,.24-.11.36-.07.04-.07.04-.16.07-.23.03-.09.05-.13.06-.24,0-.04,0-.08,0-.12.03.02.13-.01.18,0Z"/>
    <path class="cls-18" d="M5.99,5.12c-.09-.01-.2.02-.3,0-.05-.1,0-.31-.06-.38-.06-.08-.21.02-.19-.1.13-.06.4-.29.24.06.22.04.37-.17.58-.18.18,0,.22.11.27.12v.12s-.09,0-.12,0c0,0-.03-.09-.12-.06l-.12.24.12.24c-.1-.02-.19-.04-.3-.06Z"/>
    <path class="cls-13" d="M7.02,4.63s.04.17-.03.19c-.18.05-.32-.04-.45-.06v-.12c.15.04.34-.07.49,0Z"/>
    <path class="cls-18" d="M5.87,5.97s.05,0,.06,0c.11.11.06.16.36.18.1,0,.44-.07.55-.06.16,0,.19.15.28.17.08.02.25-.06.38-.05.15,0,.06.12.36.12.25,0,.53-.04.79-.06v.12s.24,0,.24,0v.12c-.35.01-.74.08-1.09.12-.04,0-.08,0-.12,0-.06-.37-.39-.09-.57-.12-.04,0-.03-.12-.08-.13-.11-.02-.24.07-.32.06-.09,0-.3-.1-.42-.12-.18-.03-.37-.06-.55-.06-.01-.01-.13.03-.12-.03,0-.03.1-.22.12-.27.04,0,.08,0,.12,0Z"/>
    <path class="cls-34" d="M6.72,5.24c.06.01.11.05.18.06.04,0,.08,0,.12,0-.06.07,0,.23-.3.19v.12s-.04,0-.06,0c-.13.03-.43.12-.55.18-.17-.19.33-.25.36-.4l-.12-.21c.13.02.23.03.36.06Z"/>
    <path class="cls-28" d="M6.66,5.6c0,.3-.34.29-.36.55-.3-.02-.26-.08-.36-.18.04-.06.12-.15.18-.18.12-.06.41-.15.55-.18Z"/>
    <path class="cls-13" d="M6.42,4.75v.12s.18,0,.18,0l-.06.18c.09-.02.17.05.24.06l-.06.12c-.13-.03-.24-.04-.36-.06-.02,0-.04,0-.06,0l-.12-.24.12-.24c.09-.03.11.06.12.06Z"/>
    <path class="cls-34" d="M6.29,6.33v.12s-.45-.04-.5-.06c-.07-.02-.03-.11-.04-.12.18,0,.37.03.55.06Z"/>
    <path class="cls-34" d="M5.75,5.97s-.03-.13.03-.12h.09s0,.12,0,.12c-.04,0-.08,0-.12,0Z"/>
    <path class="cls-30" d="M13.88,13c.04.19-.02.15-.12.21-.23.16-.55.31-.79.45-.27-.03-.15-.31-.34-.42-.16,0-.28.08-.44.12-.18.04-.37.09-.55.12-.29.05-.6.11-.89.1-.17,0-.14.07-.14-.16.12-.01.25.02.36,0s.19-.05.24-.06c.49-.07.96-.21,1.46-.24.12,0,.24,0,.36,0v-.12c.08,0,.16,0,.24,0,.17,0,.44.01.61,0Z"/>
    <path class="cls-12" d="M12.6,12.7s.08.06.18.06c.04.17-.08.12-.19.14-.48.1-.74.18-1.21.16.24-.13.5-.19.76-.24.11-.02.24.07.21-.12.08,0,.16,0,.24,0Z"/>
    <path class="cls-22" d="M12.12,12.7c.08,0,.16,0,.24,0,.04.19-.1.1-.21.12-.26.05-.53.11-.76.24-.06,0-.12,0-.18,0-.04,0-.08,0-.12,0l.51-.25c.17-.05.34-.1.52-.12Z"/>
    <path class="cls-22" d="M13.27,12.64v.12s-.08,0-.12,0c-.05,0-.2,0-.24,0-.04,0-.08,0-.12,0-.1,0-.17-.06-.18-.06.12-.06.39-.12.52-.12.09,0,.14.06.15.06Z"/>
    <path class="cls-11" d="M13.03,13v.12c-.12,0-.24,0-.36,0v-.12c.12,0,.24,0,.36,0Z"/>
    <path class="cls-28" d="M11.21,13.37c-.05,0-.13.05-.24.06v-.12s.24.06.24.06Z"/>
    <path class="cls-12" d="M13.15,12.76c-.07.08-.17.09-.24,0,.05,0,.19,0,.24,0Z"/>
    <path class="cls-7" d="M12.18,13.37l-.18.24.24.12c-.34.1-.67.3-.61-.24.18-.03.37-.08.55-.12Z"/>
    <path class="cls-13" d="M10.78,14.64c-.03.22.08.06.21.07.1,0,.2.06.3.05.26,0,.54-.12.82-.07,0,.07.03.13-.04.19-.16.13-.67.2-.87.36-.04,0-.09,0-.12,0-.14-.04-.74-.28-.79-.4-.08-.19.37.03.3-.21.05.01.13,0,.18,0Z"/>
    <path class="cls-1" d="M9.08,11s-.08,0-.12,0c0,.32.31.44.48.67.09.34.73.66,1.06.67.18,0,.48-.19.46.05h.12s.18-.39.18-.39l-.18-.03v-.12c.19-.09.11-.2.4-.3.11-.04.4-.11.51-.07-.01,0-.02.06-.06.09-.04.03-.59.2-.48.33h.12c.01.05-.02.15,0,.18-.21,0-.22.26-.24.42-.02,0-.04,0-.06,0-.11.01-.3-.05-.36.06-.11,0-.25-.01-.36,0l-.4-.11c-.23.17-.38.05-.63.05-.08-.13-.21-.2-.27-.31-.1-.17.06-.27-.34-.3.01-.51-.03-.4-.1-.78-.02-.1.05-.2.03-.27-.01-.05-.11-.07-.18-.22.24-.03.31.2.42.36Z"/>
    <path class="cls-31" d="M13.69,11.55l.24.12-.24.12.12.24c-.39-.02-.72.19-1.09.24-.05-.04.13-.48.12-.57,0-.05-.15.01-.12-.18.05-.42.6-.31.87-.57l.4.21-.02.33-.28.06Z"/>
    <path class="cls-25" d="M12.79,10.94c-.05.31-.16.44-.46.54.03.36.08.19-.15.24v-.18s-.12,0-.12,0c-.02.07-.03.18-.06.24-.13.03-.32-.01-.42.12h-.12c-.11-.14.43-.31.48-.34.05-.03.05-.08.06-.09.16-.11.24-.1.3-.3.26.01.3-.19.49-.24Z"/>
    <path class="cls-34" d="M13.57,10.27s-.01.11,0,.12c.02.02.17.01.18.12-.28,0-.15-.1-.18-.12-.11-.08-.38.29-.67.3-.04,0-.08,0-.12,0,0-.06-.01-.13,0-.18.1-.38.48-.21.79-.24Z"/>
    <path class="cls-34" d="M14.79,11.3s.04.05.06.06c0,.06,0,.13,0,.18l-.41-.07c.02-.36-.38-.52-.44-.84.08.08.22.12.3.21.25.28.04.26.48.46Z"/>
    <path class="cls-18" d="M12.79,10.52s0,.13,0,.18c0,.04,0,.08,0,.12s0,.08,0,.12c-.19.05-.22.25-.49.24.01-.05-.02-.14,0-.18.04-.11.33-.29.3-.49.02,0,.04,0,.06,0,.04,0,.08,0,.12,0Z"/>
    <path class="cls-27" d="M12,11.79c.03-.06.04-.17.06-.24h.12s0,.18,0,.18c-.06.01-.11.05-.18.06-.04.09-.13.18-.13.21,0,.14.05.26.07.4-.07.01-.18-.02-.24,0,.03-.14-.09-.21-.12-.3-.02-.04.01-.13,0-.18.11-.13.29-.09.42-.12Z"/>
    <path class="cls-25" d="M11.57,12.09c.04.09.15.17.12.3-.14.04-.2.09-.36.12.02-.17.03-.43.24-.42Z"/>
    <path class="cls-25" d="M11.27,12.52c-.09.25-.3.06-.36.06.07-.11.25-.05.36-.06Z"/>
    <path class="cls-25" d="M12.91,10.7v.12s-.12,0-.12,0c0-.04,0-.08,0-.12.04,0,.08,0,.12,0Z"/>
    <path class="cls-34" d="M14.3,12.03s.07.1-.12.12v-.12s.12,0,.12,0Z"/>
    <path class="cls-34" d="M8.42,10.09c0,.37-.09.46-.18.79-.17.07-.44.34-.49.49-.04.03-.08.09-.12.12-.03.02-.16-.05-.12.12h-.18c.04-.07.16-.44.12-.49-.09.03-.23.03-.3.06.06-.09.12-.16.18-.24.3-.43.29-.34.68-.61.11-.07.16-.3.41-.24Z"/>
    <path class="cls-27" d="M8.72,10.45c.06.02.31.04.42.06.07.01.17-.01.24,0v.18s-.04.04-.06.06c-.07.08-.06.14-.06.24-.06.02-.13,0-.18,0-.12-.16-.18-.39-.42-.36-.02-.05-.1-.08-.06-.18h.12Z"/>
    <path class="cls-24" d="M10.84,7.3c.01.18.11.39.12.58.02.26-.16.74.05.86l.31.86s0,.11,0,.12c-.18.22-.21.3-.49.36,0,.06,0,.12,0,.18v.12s-.08,0-.12,0c-.01,0-.04-.08-.18-.04-.08.03-.35.17-.31.28l-.85.06v-.18c-.08-.01-.17.01-.24,0,.02-.02.04-.05.06-.06.32-.2.36.04.73,0,.19-.02.28-.11.42-.18.17-.08.29-.13.49-.18.01-.24.1-.55.06-.76-.03-.14-.14-.13-.16-.17-.22-.4-.04-.46-.02-.86,0-.18-.06-.35-.06-.4,0-.04,0-.08,0-.12,0-.15.09-.32.06-.48h.12Z"/>
    <path class="cls-31" d="M7.33,10.94c-.06.08-.13.16-.18.24-.2.07-.16.22-.36.18.11-.24.27-.43.55-.42Z"/>
    <path class="cls-7" d="M7.63,11.49v.12s-.12,0-.12,0c-.04-.17.09-.1.12-.12Z"/>
    <path class="cls-23" d="M10.42,8.09c0,.18.03.6,0,.75-.01.05-.12.02-.13.13-.03.39.23.91.07,1.31-.15.07-.23.16-.42.18.03-.15-.17-.17-.18-.21-.04-.16.09-.12.13-.23.11-.28,0-.27-.05-.45-.03-.09,0-.2-.03-.28-.03-.09-.16-.08-.18-.14-.04-.15.11-.41.06-.59l.19-.03c-.19-.47.1-.58.19-.97.43-.04.35.24.36.54Z"/>
    <path class="cls-2" d="M10.66,7.91s.07.22.06.4c-.02.4-.2.45.02.86.02.04.13.03.16.17.04.22-.05.52-.06.76-.19.05-.32.1-.49.18.16-.39-.1-.92-.07-1.31,0-.11.12-.08.13-.13.03-.15,0-.56,0-.75h.17s.07-.18.07-.18Z"/>
    <path class="cls-27" d="M11.33,6.09v.24s-.08,0-.12,0c-.02.19.02.86.18.94.37.18.69-.91.91-.34-.28.08-.85.81-.78,1.12.32.11.26.36.43.6.09.13.25.13.23.28l-.88-.42c-.25.26.02.5.15.73-.02.06-.11.3-.12.36l-.31-.86c-.22-.12-.04-.6-.05-.86-.01-.19-.11-.4-.12-.58-.03-.4.13-.61.24-.97.04,0,.08,0,.12,0,.02-.23.11-.22.12-.24Z"/>
    <path class="cls-31" d="M12.36,4.57c-.17.11-.4.08-.49.3-.06.02-.1.06-.12.06-.55.17-.29.27-.3.69,0,.16-.07.31-.12.46,0,.02-.1.01-.12.24-.04,0-.08,0-.12,0,.04-.13.18-.51.19-.58.02-.24-.17-.66-.04-.88.02-.03.47-.34.5-.35.25-.07.46.04.62.05Z"/>
    <path class="cls-31" d="M13.76,4.33c-.06.01-.19.14-.3.12,0,.04,0,.08,0,.12-.07.01-.17-.01-.24,0-.04-.07-.11-.06-.18-.06-.19-.02-.34.07-.55.06.06-.37.26-.16.45-.18.1-.01.18-.11.36-.13.12-.01.37-.03.46.06Z"/>
    <path class="cls-25" d="M13.03,4.51v.12c-.12.02-.22.03-.36.06-.25.06-.59.12-.79.18.09-.22.32-.19.49-.3.04,0,.08,0,.12,0,.2,0,.35-.08.55-.06Z"/>
    <path class="cls-1" d="M13.94,4.33c.13,0,.17.06.18.06-.21.11-.44.14-.67.18,0-.04,0-.08,0-.12.11.02.25-.11.3-.12.05,0,.13,0,.18,0Z"/>
    <path class="cls-32" d="M11.03,5.78c-.06.23-.15.34-.18.42h-.06c0-.22.17-.37.18-.42h.06Z"/>
    <path class="cls-20" d="M10.84,6.27s-.06-.03-.06-.06h.06s0,.04,0,.06Z"/>
    <path class="cls-2" d="M16.73,7c.21-.02,1.05-.44,1.15-.14.07.29-.26.51-.3.79-.04.32.19.41.18.6,0,.14-.15.23-.18.37-.03.17.01.36,0,.53l-.3.11c.05.44-.12.42-.47.54-.05.06.04.18.03.26-.05.22-.76.26-.96.26-.15,0-.17.02-.18-.15.14-.01.37.04.49-.03.1-.06.08-.22.12-.27.1-.15.21-.19.3-.3.26-.3.16-.56.12-.91,0-.1-.07-.34-.06-.39.02-.07.13-.07.16-.11.04-.07.02-.21.08-.31.1-.16.54-.33.48-.67-.25-.25-.49.05-.73-.04.02-.03.03-.08.06-.12Z"/>
    <path class="cls-34" d="M16.06,6.39c.09,0,.3-.13.45-.05l.19.24c.29-.05.55-.14.82-.25.03-.01.08,0,.12,0,0,.1.04.13.12.18-.07,0-.34,0-.38.01-.24.05-.52.28-.65.48-.03.05-.04.09-.06.12-.01.02-.05.04-.06.06h-.42c0,.06,0,.11-.06.15-.06.04-.12.02-.18.03-.13.01-.29,0-.42,0v-.18c.06,0,.12,0,.18,0,.16,0,.32,0,.49,0,0-.06,0-.12,0-.18-.18,0-.37,0-.55,0-.02,0-.04,0-.06,0,0,0-.05-.09-.12-.06v.12c-.1,0-.2,0-.3,0v-.12s.05-.14.16-.17c.28-.08.73.14.75-.38Z"/>
    <path class="cls-20" d="M14.91,9.67c.14.14.38.24.58.25.09,0,.14-.06.15-.06.06,0,.12,0,.18,0,.08,0,.31.13.49,0-.04.05-.02.22-.12.27-.12.07-.34.01-.49.03-.1,0-.2,0-.3,0,.04-.17-.08-.11-.19-.14-.28-.06-.56-.12-.84-.16-.04,0-.08,0-.12,0,.03-.13-.23-.23-.31-.27-.16-.07-.37-.13-.54-.16.02-.12.03-.18,0-.3.02,0,.04,0,.06,0,.08.22.3.16.47.23.31.13.61.38.99.32Z"/>
    <path class="cls-2" d="M13.57,7.18c.06,0,.12,0,.18,0v.12l-.08.04c-.62-.06-.87-.22-.9.54,0,.31.03.22-.04.56-.04.19.17,1.06.47.8.08-.07.01-.1.18-.12.03.12.02.18,0,.3.17.03.38.09.54.16.08.04.34.14.31.27-.12-.02-.24-.05-.36-.06-.04,0-.08,0-.12,0,.04-.17-.13-.14-.24-.18-.26-.1-.6-.15-.79-.42-.08-.12-.46-.67-.49-.75-.08-.19-.1-.73,0-.9.02-.03.46-.39.49-.41.35-.16.56.03.85.06Z"/>
    <path class="cls-28" d="M13.45,4.57c0,.09-.02.1.07.11.19.02.49-.1.68-.11.33-.02.85-.02,1.18,0,.17,0,.39.09.58.11.32.03.2.04.31.07.13.03.31-.02.44,0l-.3.12c-.09,0-.26-.03-.3.06-.08,0-.16.01-.24,0-.09-.01-.24-.06-.3-.06v-.12c-.23.03-.43.06-.67.06-.11,0-.25,0-.36,0-.2,0-.37-.02-.61,0-.09,0-.17-.02-.24.06-.05-.01-.12,0-.18,0-.03,0-.08-.06-.15-.06-.14.01-.4.21-.64.12-.01-.05-.06-.12-.06-.18v-.06c.14-.03.24-.04.36-.06.08-.02.16-.06.18-.06.07-.01.17.01.24,0Z"/>
    <path class="cls-13" d="M15.39,4.57c-.03-.23.36-.04.52-.06.18-.02.28-.18.51-.07l-.06.18c.21.09.26-.12.28-.12.12,0,.5.12.63.12v.12s-.04,0-.06,0c-.04-.1-.26-.1-.3,0,0,0,.03.08-.04.12-.19.1-.33.01-.44,0l.3-.12c-.14-.02-.32.03-.44,0-.11-.03.01-.04-.31-.07-.19-.02-.41-.1-.58-.11Z"/>
    <path class="cls-11" d="M17.94,4.63l-.36.18c-.06-.03-.23-.05-.3-.06v-.12c.17,0,.45-.16.67,0Z"/>
    <path class="cls-13" d="M17.94,4.63l.06.15-.24.12.18.04s0,.08,0,.12c-.08,0-.16,0-.24,0-.01-.09-.04-.19-.12-.24l.36-.18Z"/>
    <path class="cls-26" d="M14.54,5.3c.12,0,.24,0,.36,0,.16.01.29.05.42.06,0,0,.09.05.18.06s.21-.01.3,0c.04,0,.08,0,.12,0,.23.04.45.12.67.18-.08.06-.2.21-.28.23-.07.02-.12-.05-.14-.05-.08,0-.16,0-.24,0-.01,0-.05-.06-.1-.06-.19,0-.47.07-.57.24-.07,0-.19.02-.24,0,0,0-.11-.05-.12-.06-.08-.05-.13-.17-.19-.2s-.41-.21-.45-.22c-.24-.04-.33.17-.51.18-.04,0-.08,0-.12,0v-.12s-.61.06-.61.06c.36-.4,1.02-.31,1.52-.3Z"/>
    <path class="cls-1" d="M15.88,6.03v.12s.08,0,.12,0c.22.04.46.04.68.07.11.02.6.27.59-.01h.24v.12c-.27.1-.53.2-.82.25l-.19-.24c-.15-.08-.36.05-.45.05-.15,0-.32-.15-.48-.12l.18.24c-.29-.01-.55.06-.85.06v-.12c-.22.08-.33-.17-.36-.19l.06-.12c.23.21.8.13,1.08.02.01,0,.19-.13.2-.14Z"/>
    <path class="cls-22" d="M16.12,4.93c.59.07.95.2,1.58.12,0,.06,0,.12,0,.18-.36-.17-.36.16-.12.36-.02.01-.05.06-.06.06-.03,0-.09,0-.12,0-.02-.24-.24-.23-.42-.24-.06,0-.12,0-.18,0,.04-.17-.08-.12-.19-.14-.24-.05-.48-.09-.72-.1v-.18s0-.06,0-.06c.08.01.16,0,.24,0Z"/>
    <path class="cls-4" d="M16.61,5.6c.17.05.71.14.79.33.05.12-.08.09-.15.09-.17.01-.35,0-.52,0-.04,0-.08,0-.12,0-.11-.1-.24-.05-.36-.06-.04,0-.08,0-.12,0l.06-.18s.07.06.14.05c.08-.02.2-.17.28-.23Z"/>
    <path class="cls-29" d="M15.88,5v.18c.24,0,.48.05.72.1.11.02.23-.03.19.14-.09-.01-.21,0-.32-.01s-.55-.27-.53.01c-.04,0-.08,0-.12,0v-.11c-.14-.07-.22-.02-.3,0-.04,0-.09,0-.12,0v-.28s.49-.03.49-.03Z"/>
    <path class="cls-29" d="M16.24,5.97v.12c.12.06.33-.06.36-.06.04,0,.08,0,.12,0v.12s.55.06.55.06c0,.29-.48.03-.59.01-.22-.03-.46-.04-.68-.07l.06-.18s.04,0,.06,0c.04,0,.08,0,.12,0Z"/>
    <path class="cls-29" d="M17.4,5.66c-.13-.02-.47-.08-.42-.24.18.02.41,0,.42.24Z"/>
    <path class="cls-22" d="M17.76,5.66c.3-.07.22.1.24.12h-.24s.01-.1,0-.12Z"/>
    <path class="cls-18" d="M7.93,4.57c.58.06.75.23,1.17.47.07.04.2,0,.22.02.01,0,0,.2.05.28.05.11.47.53.13.56-.03-.12-.32-.19-.42-.18.06-.12-.38-.28-.49-.3l.24-.18c-.1.04-.2-.06-.24-.06h.06c.12-.03.41.1.36-.12-.2.02-.36-.21-.53-.23-.09-.01-.13.05-.13.05-.25-.03-.5-.13-.73-.12v-.12s.04-.06.06-.06c.07,0,.17,0,.24,0Z"/>
    <path class="cls-13" d="M8.6,5.18s.14.1.24.06l-.24.18c-.05,0-.12,0-.18,0-.39-.03-.79-.02-1.15.12.03-.09-.05-.13.17-.13v-.18c.37-.04.78-.11,1.16-.06Z"/>
    <path class="cls-18" d="M7.45,5.24v.18c-.23,0-.15.04-.18.13-.01.03-.06.07-.06.12-.04,0-.23.05-.24.06l-.06-.16s-.13.03-.18.03v-.12c.3.05.24-.12.3-.19,0-.01.06-.06.06-.06.09-.02.26.01.36,0Z"/>
    <path class="cls-11" d="M8.36,4.87s.04-.07.13-.05c.17.03.33.25.53.23.05.22-.24.09-.36.12v-.12c-.2.02-.26.02-.3-.18Z"/>
    <path class="cls-13" d="M7.63,4.63v.12c-.06,0-.22.09-.24.06v-.18c.08,0,.17.01.24,0Z"/>
    <path class="cls-13" d="M6.9,5.12c.06,0,.12,0,.18,0v.12s-.05.05-.06.06c-.04,0-.08,0-.12,0v-.18Z"/>
    <path class="cls-18" d="M6.9,5.12v.18c-.07,0-.13-.05-.18-.06l.06-.12s.08,0,.12,0Z"/>
    <path class="cls-28" d="M9.08,5.72c.1,0,.4.07.42.18.02.09,0,.26,0,.36-.17.02-.34.09-.52.06-.12-.02-.14-.11-.15-.12l.36-.06v-.17s-.3-.13-.3-.13c.06-.05.03-.12.18-.12Z"/>
    <path class="cls-29" d="M8.84,6.21s.03.1.15.12c.18.03.34-.05.52-.06v.12c-.06,0-.12,0-.18,0v.12c-.11-.02-.3,0-.42,0v-.12s-.24,0-.24,0v-.12s.09-.06.12-.06c.02,0,.05,0,.06,0Z"/>
    <path class="cls-25" d="M9.51,6.39c.16.02.15.11.18.12,0,.04,0,.08,0,.12-.04,0-.09,0-.12,0-.09-.02-.21-.12-.24-.12v-.12c.06,0,.12,0,.18,0Z"/>
    <path class="cls-25" d="M7.75,7.24c-.03-.15,0-.15.11-.22.17-.1.83-.37.98-.26l-.12.3s-.11,0-.12,0c-.03-.12-.2-.01-.24.06-.21.02-.4.09-.61.12Z"/>
    <path class="cls-27" d="M9.69,6.63c0,.11-.03.15-.06.24h-.12s.06-.24.06-.24c.04,0,.08,0,.12,0Z"/>
    <path class="cls-24" d="M8.6,7.06s-.03.09-.1.11c-.09.02-.13-.06-.14-.05.05-.07.21-.19.24-.06Z"/>
    <path class="cls-4" d="M8.78,5.91s.04.04.06.06l-.06.24s-.09.06-.12.06c-.26.02-.54.06-.79.06-.04-.17.09-.09.16-.14.03-.02.01-.1.02-.1.15-.1.12.06.36-.24.01-.01.17.04.15-.24.09.09.12.2.21.3Z"/>
    <path class="cls-21" d="M7.2,5.66c.06,0,.14.06.18.06v.06l.12.42c-.13,0-.3.07-.38.05-.09-.02-.12-.17-.28-.17-.01-.06.1-.35.12-.36,0,0,.21-.06.24-.06Z"/>
    <path class="cls-12" d="M6.96,5.72s-.13.3-.12.36c-.1,0-.45.07-.55.06.03-.25.37-.25.36-.55.02,0,.04,0,.06,0,.05,0,.14-.07.18-.03l.06.16Z"/>
    <path class="cls-12" d="M7.69,5.78l-.06.21.24-.03s.13.08.18.12c0,0,.01.08-.02.1-.07.05-.2-.03-.16.14-.3,0-.21-.12-.36-.12l-.12-.42.12-.06c.08.02.09.01.18.06Z"/>
    <path class="cls-22" d="M12.3,11.18c-.06.21-.14.19-.3.3-.11-.04-.4.03-.51.07-.29.1-.21.21-.4.3v.12s.18.03.18.03l-.18.39h-.12c.02-.24-.28-.05-.46-.06-.33-.01-.97-.33-1.06-.67-.04-.15,0-.52,0-.55.04.02.08.04.12.06.1.04.19.07.3.06.06.26-.27.02-.3.06-.02.64.77.6,1.24.67.01-.13.2-.54.29-.59s.69-.03.86-.08c.11-.03.08-.16.1-.17.04-.04.14-.05.18-.12h.06s.01.13,0,.18Z"/>
    <path class="cls-18" d="M9.75,10.82v.12s-.08,0-.12,0c-.12,0-.22-.03-.3.09.02.04.12.08.12.09,0,.03-.04.39,0,.55-.18-.23-.48-.35-.48-.67.04,0,.09,0,.12,0,.05-.01.12.02.18,0,0-.1,0-.15.06-.24.07.1.3.07.42.06Z"/>
    <path class="cls-11" d="M12.6,10.52c.02.2-.26.37-.3.49h-.06c-.08-.03-.06-.12-.06-.18,0-.05-.01-.15,0-.18,0-.01.15-.15.18-.18.1-.05.19.05.24.06Z"/>
    <path class="cls-13" d="M12.66,10.33v.18s-.04,0-.06,0c-.05-.01-.14-.11-.24-.06.06-.05.07-.12.18-.16.15-.05.12.04.12.04Z"/>
    <path class="cls-1" d="M10.24,10.64s.04,0,.06,0l-.06.12s-.04,0-.06,0c-.15.02-.32.05-.42.06-.12.01-.35.04-.42-.06.02-.02.03-.05.06-.06l.85-.06Z"/>
    <path class="cls-25" d="M12.3,9.06s.04,0,.06,0c0,.11.18.11.18.12.02.03-.01.18,0,.24-.08-.02-.16-.06-.24-.06.08.18.01.29,0,.42-.2,0-.19-.16-.18-.3-.33-.11-.52.44-.37.64l.15.08.4-.23c-.02.07.01.14-.05.22-.11.13-.64.39-.56.03l-.45.05c-.06.03-.03.08-.04.13-.08,0-.16,0-.24,0-.04,0-.08,0-.12,0v-.12l.6-.25c.1-.17-.1-.27-.11-.3,0-.01,0-.1,0-.12.02-.06.1-.3.12-.36.02-.06.12-.3.16-.31.25,0,.44.09.69.12Z"/>
    <path class="cls-27" d="M11.33,9.73s.21.13.11.3l-.6.25c0-.06,0-.12,0-.18.28-.07.31-.14.49-.36Z"/>
    <path class="cls-25" d="M10.72,10.39s0,.08,0,.12c-.15.02-.28.1-.42.12-.02,0-.04,0-.06,0-.04-.11.22-.25.31-.28.14-.04.17.04.18.04Z"/>
    <path class="cls-15" d="M10.84,10.39s.08,0,.12,0c-.03.04-.1.08-.12.12-.04,0-.08,0-.12,0,0-.04,0-.08,0-.12.04,0,.08,0,.12,0Z"/>
    <path class="cls-31" d="M12.66,6.94c.02.06.02.13.06.18-.03.01-.47.38-.49.41-.1.17-.08.71,0,.9.03.08.41.63.49.75h-.18v-.12c-.06,0-.12,0-.18,0-.02,0-.04,0-.06,0v-.12s-.12,0-.12,0c.01-.16-.14-.15-.23-.28-.17-.25-.11-.5-.43-.6-.07-.31.5-1.04.78-1.12.09-.03.26.02.36,0Z"/>
    <path class="cls-25" d="M11.75,4.93c.03.17-.14.27-.17.41-.04.17.01.36-.02.53-.02.15-.46,1.12.09.94.2-.07.19-.62.68-.17.09-.04.07-.21.1-.23.01,0,.28-.07.29-.07.12,0,.25.07.36.06,0,.04,0,.09,0,.12,0,.03-.06.07-.06.12-.05-.04-.3-.08-.37-.03-.11.07-.02.24,0,.34-.11.02-.27-.03-.36,0-.22-.58-.54.52-.91.34-.16-.08-.2-.75-.18-.94.04,0,.08,0,.12,0v-.24c.05-.15.12-.3.12-.46,0-.43-.25-.53.3-.69Z"/>
    <path class="cls-34" d="M12.18,8.94h.12s0,.12,0,.12c-.25-.04-.44-.13-.69-.12-.04.01-.14.25-.16.31-.13-.22-.4-.47-.15-.73l.88.42Z"/>
    <path class="cls-15" d="M12.66,4.69v.06c-.1.11-.37.16-.42.3-.16.08-.23.05-.36-.06.1.22-.12.32-.12.34-.03.13.01.3-.02.46-.05.25-.26.45-.23.71.06.07.37-.28.47-.29.08-.01.17.15.29.11.08-.02.08-.17.09-.18.03-.03.24-.05.3-.06,0,.08.05.16.06.24-.02,0-.28.06-.29.07-.03.02-.01.19-.1.23-.49-.45-.47.11-.68.17-.55.18-.11-.79-.09-.94.03-.17-.02-.36.02-.53.03-.14.2-.24.17-.41.02,0,.06-.04.12-.06.2-.06.54-.13.79-.18Z"/>
    <path class="cls-1" d="M13.21,4.57s-.1.04-.18.06v-.12c.07,0,.14-.01.18.06Z"/>
    <path class="cls-23" d="M16.61,9.55c-.1.11-.2.15-.3.3-.18.13-.41,0-.49,0,.34-.16.45-.44.48-.81l-.75-.53-.81.43c-.11.49.15.36.41.51.16.09.28.33.49.39,0,0-.06.06-.15.06-.2,0-.44-.1-.58-.25,0,0,.04-.11-.04-.12-.18-.04-.52-.06-.7-.12-.07-.02-.06-.12-.15-.17s-.45-.13-.57-.13c-.02,0-.04,0-.06,0-.07-.28-.04-.37-.08-.57-.04-.25-.28-.49-.03-.75.26-.1.52.11.74.11.19,0,.4-.14.6-.12.18.02.5.19.74.18s.38-.5.81-.02c.24.26.05.36.08.53.02.08.3.29.34.45.04.18-.15.42.01.62Z"/>
    <path class="cls-32" d="M16.49,7.42c.18-.04.35-.14.55-.12.06.22-.11.17-.18.27-.14.19-.54.99-.12,1.06.03.35.14.61-.12.91-.16-.2.03-.44-.01-.62-.04-.16-.32-.36-.34-.45-.03-.17.16-.27-.08-.53-.43-.47-.58,0-.81.02s-.56-.16-.74-.18c-.2-.02-.41.12-.6.12-.23,0-.49-.21-.74-.11-.25.26-.01.5.03.75.03.2.01.29.08.57-.17.02-.1.05-.18.12-.17-.12-.33-.41-.29-.62.02-.12.17-.25.17-.38,0-.09-.09-.16-.1-.25-.02-.11.11-.25-.08-.36.1-.15.23-.03.39-.03.55,0,1.02-.06,1.55-.12.04,0,.14,0,.18,0,.27.06.6.07.91.06.03,0,.45-.1.55-.12Z"/>
    <path class="cls-20" d="M16.67,7.12c.25.09.48-.21.73.04.06.33-.38.5-.48.67-.07.11-.04.24-.08.31-.03.04-.14.04-.16.11-.01.04.05.29.06.39-.42-.08-.01-.88.12-1.06.07-.1.24-.05.18-.27-.2-.02-.36.08-.55.12.02-.08.08-.17.12-.24.01-.02.05-.04.06-.06Z"/>
    <path class="cls-1" d="M14.12,6.45v.06c-.19.05-.22.2-.06.34.19.17.44.19.67.21.04,0,.08,0,.12,0,.1,0,.2,0,.3,0s.2,0,.3,0c.05,0,.11,0,.12-.06.02,0,.04,0,.06,0l.06.18c-.06,0-.12,0-.18,0-.08,0-.16,0-.24,0v.18c-.08,0-.16,0-.24,0-.06,0-.12,0-.18,0-.03,0-.13-.05-.24-.06-.03,0-.13-.05-.24-.06-.2-.02-.41-.04-.61-.06-.06,0-.12,0-.18,0,.03-.18-.16-.12-.28-.2-.08-.06-.24-.33-.26-.34,0-.05.05-.09.06-.12.2-.11.39.04.53.05.09,0,.32-.19.5-.11Z"/>
    <path class="cls-24" d="M16.06,6.39c-.02.51-.47.3-.75.38-.11.03-.15.16-.16.17-.03.01-.13,0-.18,0,.03-.21-.31-.06-.24-.36.06,0,.12,0,.18,0,.3,0,.55-.07.85-.06l-.18-.24c.17-.02.33.12.48.12Z"/>
    <path class="cls-2" d="M16.61,7.18c-.04.07-.1.16-.12.24-.1.02-.52.12-.55.12v-.18c.06,0,.13.01.18-.03.06-.04.05-.09.06-.15h.42Z"/>
    <path class="cls-25" d="M15.64,7c.18,0,.37,0,.55,0,0,.06,0,.13,0,.18-.16,0-.32,0-.49,0l-.06-.18Z"/>
    <path class="cls-25" d="M14.97,6.94c.05,0,.15.01.18,0v.12c-.1,0-.2,0-.3,0v-.12s.08,0,.12,0Z"/>
    <path class="cls-25" d="M15.58,7c-.02.06-.07.06-.12.06v-.12c.07-.03.11.06.12.06Z"/>
    <path class="cls-19" d="M15.64,9.85c-.21-.06-.33-.3-.49-.39-.26-.15-.52-.02-.41-.51l.81-.43.75.53c-.03.37-.14.64-.48.81-.06,0-.12,0-.18,0Z"/>
    <path class="cls-32" d="M13.45,9.12c.12,0,.48.09.57.13s.08.14.15.17c.19.07.52.08.7.12.08.02.03.11.04.12-.38.06-.68-.19-.99-.32-.17-.07-.39,0-.47-.23Z"/>
    <path class="cls-15" d="M12.54,9.42s.08.04.12.06v.12s.12,0,.12,0c0,.01.09,0,.12,0l.13.33c0,.06-.12.03-.13.03l-.3-.18c0,.09,0,.2-.04.29-.07.15-.36.38-.54.44-.43.15-.37-.07-.7-.12-.04,0-.08,0-.12,0,0-.05-.02-.1.04-.13l.45-.05c-.09.36.45.09.56-.03.07-.08.04-.14.05-.22.01-.05,0-.12,0-.18.01-.13.08-.25,0-.42.09,0,.16.04.24.06Z"/>
    <path class="cls-34" d="M12.36,9.06c.06,0,.12,0,.18,0v.12s.18,0,.18,0c.19.28.52.33.79.42v.12c-.17-.02-.39-.07-.61-.12-.04,0-.11.01-.12,0-.06-.06.08-.02-.12-.12-.04-.02-.09-.05-.12-.06-.01-.06.02-.22,0-.24,0,0-.18,0-.18-.12Z"/>
    <path class="cls-29" d="M11.33,10.39c.33.05.26.27.7.12.17-.06.47-.29.54-.44.04-.09.04-.2.04-.29l.3.18c-.08.12-.05.35-.24.36,0,0,.03-.08-.12-.04-.11.03-.12.1-.18.16-.03.03-.18.17-.18.18-.24-.01-.48.1-.73.06-.02-.11-.1-.19-.12-.3Z"/>
    <path class="cls-31" d="M13.51,9.61c.12.04.28.01.24.18-.04,0-.08,0-.12,0-.04-.02,0-.05-.12-.06v-.12Z"/>
    <path class="cls-20" d="M13.76,7.3c.22.11.36.14.61.12.11,0,.2,0,.24-.12.11.01.21.06.24.06v.12c-.53.07-1,.13-1.55.12-.16,0-.3-.12-.39.03.19.11.06.25.08.36.01.09.1.16.1.25,0,.13-.15.26-.17.38-.04.21.12.5.29.62-.3.25-.52-.61-.47-.8.08-.34.03-.25.04-.56.02-.76.27-.6.9-.54l.08-.04Z"/>
    <path class="cls-24" d="M13.03,6.63s.18.29.26.34c.12.09.32.02.28.2-.29-.03-.5-.22-.85-.06-.04-.06-.04-.12-.06-.18-.03-.1-.11-.26,0-.34.07-.05.32,0,.37.03Z"/>
    <path class="cls-31" d="M14.36,7.24v.18c-.25.02-.38-.01-.61-.12v-.12c.2.02.41.04.61.06Z"/>
    <path class="cls-4" d="M14.91,4.81c.06.26-.31.27-.45.36l.09.12c-.5,0-1.15-.1-1.52.3l.61-.06v.12c-.05.15-.11.15-.18.3h-.06s-.09-.01-.12,0l-.4-.19-.08.02v.11h-.13c-.02-.14-.13-.37-.12-.39.02-.07.2-.1.24-.2.03-.1-.04-.22-.05-.32,0-.02,0-.04,0-.06.24.1.5-.1.64-.12.07,0,.12.05.15.06.09.36.67.26.91.15.14-.06.14-.04.12-.21.11,0,.25,0,.36,0Z"/>
    <path class="cls-13" d="M12.72,4.93s0,.04,0,.06c-.24-.02-.14.21-.19.29-.06.09-.41.07-.42.47,0,.13.44.24.55.21,0,.04,0,.08,0,.12-.06.01-.27.03-.3.06-.26-.15-.19-.23-.55-.12.01-.32.28-.54.41-.77.03-.06,0-.16.01-.2.05-.14.32-.2.42-.3,0,.07.05.13.06.18Z"/>
    <path class="cls-29" d="M17.21,4.75s.04,0,.06,0c.08,0,.25.03.3.06.09.05.11.15.12.24-.63.08-.99-.05-1.58-.12.05-.09.21-.07.3-.06.11,0,.25.09.44,0,.07-.04.04-.12.04-.12.02-.01.24,0,.3,0Z"/>
    <path class="cls-3" d="M14.54,4.81c.02.17.02.15-.12.21-.25.11-.82.21-.91-.15.06,0,.13-.01.18,0,.01,0,.14.12.24.06v-.12c.24-.02.41,0,.61,0Z"/>
    <path class="cls-12" d="M14.91,4.81c.24,0,.44-.03.67-.06v.12c-.24,0-.75.11-.67.42-.12,0-.24,0-.36,0l-.09-.12c.15-.1.52-.11.45-.36Z"/>
    <path class="cls-11" d="M15.58,4.87c.06,0,.21.05.3.06v.06l-.49.03v.28s-.05.03-.06.06c-.14-.01-.26-.05-.42-.06-.08-.32.42-.42.67-.42Z"/>
    <path class="cls-4" d="M13.94,4.81v.12c-.1.06-.23-.06-.24-.06.07-.08.16-.05.24-.06Z"/>
    <path class="cls-11" d="M17.21,4.75c-.06,0-.28-.01-.3,0,.04-.1.26-.1.3,0Z"/>
    <path class="cls-12" d="M13.76,5.66c.18-.02.27-.22.51-.18.04,0,.39.18.45.22s.1.16.19.2v.12s.12-.06.12-.06c.05.02.17,0,.24,0,.01,0,.04.06.13.05.11-.01.48-.13.53-.23.08,0,.16,0,.24,0l-.06.18s-.04,0-.06,0c-.01,0-.06-.08-.14-.07-.07.01-.03.12-.04.13,0,0-.19.13-.2.14-.28.12-.84.19-1.08-.02-.02-.02-.27-.31-.3-.36-.02-.02.03-.13-.03-.12h-.09s0,.08,0,.12c-.15,0-.28-.04-.42-.06v-.06Z"/>
    <path class="cls-29" d="M13.76,5.66v.06l-.11.26c.03.12.1.23.23.22,0,0,.02.11-.04.12-.08.02-.6.05-.75.06-.12,0-.24-.07-.36-.06-.01-.08-.05-.16-.06-.24,0-.04,0-.08,0-.12,0-.02,0-.04,0-.06h.12l.1.19c.16.04.28-.09.39-.13.03-.01.08,0,.12,0l.03.12c.06,0,.01-.08.03-.12.07-.15.13-.15.18-.3.04,0,.08,0,.12,0Z"/>
    <path class="cls-3" d="M15.94,5.78c-.05.11-.42.22-.53.23-.09,0-.12-.05-.13-.05.1-.17.38-.25.57-.24.05,0,.09.06.1.06Z"/>
    <path class="cls-11" d="M15.51,5.3c.09-.01.17-.06.3,0v.11c-.08-.01-.2.01-.3,0v-.12Z"/>
    <path class="cls-12" d="M15.51,5.3v.12c-.09-.01-.17-.06-.18-.06,0-.03.03-.05.06-.06.04,0,.08,0,.12,0Z"/>
    <path class="cls-3" d="M15.03,5.97l-.12.06v-.12s.11.06.12.06Z"/>
    <path class="cls-27" d="M14.3,5.78s.29.35.3.36l-.06.12s-.37-.06-.42-.06c-.02,0-.04,0-.06,0l-.06-.3s.14.11.18-.12c.04,0,.08,0,.12,0Z"/>
    <path class="cls-18" d="M14.54,6.27s.15.26.36.19v.12c-.06,0-.12,0-.18,0,0,0-.08-.06-.18-.06-.11,0-.34-.02-.42,0v-.3c.06,0,.4.05.42.06Z"/>
    <path class="cls-11" d="M16.06,5.97l-.06.18s-.08,0-.12,0v-.12s-.03-.11.04-.13c.08-.01.13.07.14.07Z"/>
    <path class="cls-11" d="M16.61,6.03s-.24.12-.36.06v-.12c.12.01.26-.04.36.06Z"/>
    <path class="cls-3" d="M8.6,5.42c.11.02.54.18.49.3-.15,0-.12.07-.18.12-.02.02-.04.04-.06.06h-.06c-.09-.1-.12-.21-.21-.3.02.28-.14.23-.15.24v-.42c.06,0,.13,0,.18,0Z"/>
    <path class="cls-26" d="M8.42,5.42v.42c-.25.3-.21.14-.36.24-.05-.04-.14-.08-.18-.12-.06-.06.04-.06-.18-.18-.09-.05-.1-.04-.18-.06-.12-.03-.11,0-.12,0-.04,0-.12-.07-.18-.06,0-.05.05-.09.06-.12.36-.14.76-.15,1.15-.12Z"/>
    <path class="cls-13" d="M8.9,5.84l.3.13v.17s-.36.06-.36.06c0,0-.04,0-.06,0l.06-.24v-.06s.04-.04.06-.06Z"/>
    <path class="cls-28" d="M8.84,5.97s-.04-.04-.06-.06h.06v.06Z"/>
    <path class="cls-4" d="M7.51,5.72l-.12.06v-.06s0-.03.12,0Z"/>
    <path class="cls-4" d="M7.69,5.78c.22.12.12.12.18.18l-.24.03.06-.21Z"/>
    <path class="cls-11" d="M11.21,10.52s.04.15.24.18c0,.04,0,.08,0,.12-.29.01-.57-.06-.79.18-.05,0-.37.14-.4.18l.03.3-.36-.06c-.02.21.38.35.53.35.21,0,.26-.38.44-.51.16-.12.44-.06.43-.27.04,0,.08,0,.12,0v.12c.12,0,.24,0,.36,0,.08,0,.16,0,.24,0-.01.01,0,.14-.1.17-.17.05-.77.03-.86.08s-.28.47-.29.59c-.47-.07-1.26-.03-1.24-.67.03-.04.36.2.3-.06-.11.01-.2-.02-.3-.06l.06-.24s.08,0,.12,0c.14,0,.3.02.42,0s.41-.1.36-.24c.04,0,.08,0,.12,0,.05,0,.16.02.18,0,.02-.02-.01-.14,0-.18.08,0,.32-.02.36,0Z"/>
    <path class="cls-4" d="M11.45,10.82c.24,0,.49,0,.73,0,0,.07-.02.15.06.18-.04.07-.14.09-.18.12-.08,0-.16,0-.24,0v-.12c-.12,0-.24,0-.36,0-.04,0-.08,0-.12,0-.2,0-.55,0-.67,0,.22-.24.5-.17.79-.18Z"/>
    <path class="cls-13" d="M9.63,10.94l-.06.24s-.08-.04-.12-.06c0-.01-.1-.05-.12-.09.08-.12.19-.08.3-.09Z"/>
    <path class="cls-22" d="M10.18,10.76v.18c-.13.02-.29,0-.42,0v-.12c.11,0,.28-.05.42-.06Z"/>
    <path class="cls-13" d="M11.33,10.39c.02.11.1.19.12.3.25.04.48-.07.73-.06-.01.03,0,.13,0,.18-.24,0-.49,0-.73,0,0-.04,0-.08,0-.12-.2-.03-.22-.17-.24-.18,0-.04,0-.08,0-.12.04,0,.08,0,.12,0Z"/>
    <path class="cls-22" d="M10.72,10.52c-.01.06-.03.13-.06.18-.04,0-.08,0-.12,0-.1.02-.19.05-.3.06l.06-.12c.15-.02.28-.1.42-.12Z"/>
    <path class="cls-13" d="M10.54,10.7c.05.14-.24.22-.36.24v-.18s.04,0,.06,0c.11-.01.2-.05.3-.06Z"/>
    <path class="cls-34" d="M12.3,9.97l-.4.23-.15-.08c-.15-.2.03-.75.37-.64,0,.14-.02.31.18.3,0,.06.01.13,0,.18Z"/>
    <path class="cls-29" d="M11.21,10.39s0,.08,0,.12c-.04-.02-.29,0-.36,0,.02-.04.09-.08.12-.12.08,0,.16,0,.24,0Z"/>
    <path class="cls-13" d="M10.84,10.52s.02.16,0,.18c-.02.02-.13,0-.18,0,.04-.06.05-.12.06-.18.04,0,.08,0,.12,0Z"/>
    <path class="cls-15" d="M14.06,6.21s.04,0,.06,0v.24c-.18-.09-.41.11-.5.11-.13,0-.32-.16-.53-.05,0-.03,0-.08,0-.12.15,0,.67-.04.75-.06.06-.02.03-.12.04-.12.01,0,.14,0,.18,0Z"/>
    <path class="cls-29" d="M12.24,5.06s.02.14-.01.2c-.13.23-.4.46-.41.77.36-.11.28-.03.55.12-.01.01-.01.16-.09.18-.12.03-.21-.12-.29-.11-.09.01-.4.36-.47.29-.03-.27.18-.46.23-.71.03-.16-.01-.33.02-.46,0-.02.22-.12.12-.34.13.11.2.14.36.06Z"/>
    <path class="cls-20" d="M15.27,7.36c.08,0,.16,0,.24,0,.14,0,.29.01.42,0v.18c-.31.01-.64,0-.91-.06v-.12c.08,0,.16,0,.24,0Z"/>
    <path class="cls-31" d="M15.03,7.36v.12s-.14,0-.18,0v-.12c.06,0,.12,0,.18,0Z"/>
    <path class="cls-25" d="M14.54,6.51l-.27.12c-.16.4.44.08.45.43-.23-.02-.48-.04-.67-.21-.16-.13-.13-.29.06-.34.09-.02.31,0,.42,0Z"/>
    <path class="cls-34" d="M14.73,6.57c-.07.3.28.16.24.36-.04,0-.08,0-.12,0v.12s-.08,0-.12,0c-.01-.34-.62-.03-.45-.43l.27-.12c.1,0,.17.06.18.06Z"/>
    <path class="cls-25" d="M15.51,7.18v.18c-.08,0-.16,0-.24,0v-.18c.08,0,.16,0,.24,0Z"/>
    <path class="cls-34" d="M14.6,7.3c-.04.13-.13.11-.24.12v-.18c.11.01.21.06.24.06Z"/>
    <path class="cls-25" d="M12.66,9.48c.2.1.06.06.12.12h-.12s0-.12,0-.12Z"/>
    <path class="cls-28" d="M12.72,5c.02.1.09.22.05.32-.03.1-.22.13-.24.2,0,.02.1.25.12.39,0,.02,0,.04,0,.06-.11.03-.55-.08-.55-.21,0-.4.35-.38.42-.47.05-.08-.04-.31.19-.29Z"/>
    <path class="cls-28" d="M13.27,5.97c-.11.04-.23.16-.39.13l-.1-.19v-.11s.09-.02.09-.02l.4.19Z"/>
    <path class="cls-28" d="M13.45,5.97s.03.12-.03.12l-.03-.12h.06Z"/>
    <path class="cls-18" d="M14.18,5.78s0-.08,0-.12h.09c.07,0,.02.1.03.12-.04,0-.08,0-.12,0-.04.24-.13.07-.18.12l.06.3s-.17,0-.18,0c-.13,0-.2-.1-.23-.22l.11-.26c.14.02.28.05.42.06Z"/>
    <path class="cls-12" d="M11.33,11c.01.21-.26.15-.43.27-.17.13-.23.5-.44.51-.15,0-.54-.14-.53-.35l.36.06-.03-.3s.34-.18.4-.18c.12,0,.47,0,.67,0Z"/>
    <path class="cls-12" d="M11.45,11c.12,0,.24,0,.36,0v.12c-.12,0-.24,0-.37,0v-.12Z"/>
  </g>
</svg>