<?xml version="1.0" encoding="UTF-8"?>
<svg id="Ebene_1" data-name="Ebene 1" xmlns="http://www.w3.org/2000/svg" xmlns:xlink="http://www.w3.org/1999/xlink" viewBox="0 0 76.03 20">
  <defs>
    <style>
      .cls-1 {
        letter-spacing: -.02em;
      }

      .cls-2 {
        fill: #f2f2f2;
        font-family: Verdana, Verdana;
        font-size: 12px;
      }

      .cls-3 {
        fill: #294999;
      }

      .cls-4 {
        clip-path: url(#clippath);
      }
    </style>
    <clipPath id="clippath">
      <path class="cls-3" d="M3.62,0h68.79c2,0,3.62,1.34,3.62,3v14c0,1.66-1.62,3-3.62,3H3.62c-2,0-3.62-1.34-3.62-3V3C0,1.34,1.62,0,3.62,0Z"/>
    </clipPath>
  </defs>
  <g>
    <rect class="cls-3" width="76.03" height="20" rx="3" ry="3"/>
    <g>
      <path class="cls-3" d="M3.62,0h68.79c2,0,3.62,1.34,3.62,3v14c0,1.66-1.62,3-3.62,3H3.62c-2,0-3.62-1.34-3.62-3V3C0,1.34,1.62,0,3.62,0Z"/>
      <g class="cls-4">
        <g>
          <rect class="cls-3" width="76.03" height="20"/>
          <rect class="cls-3" width="76.03" height="20"/>
        </g>
      </g>
    </g>
  </g>
  <text class="cls-2" transform="translate(22.87 15)"><tspan class="cls-1" x="0" y="0">P</tspan><tspan x="6.94" y="0">ortfolio</tspan></text>
  <image width="211" height="232" transform="translate(5.33 2.96) scale(.06)" xlink:href="jonas.png"/>
</svg>